<svg xmlns="http://www.w3.org/2000/svg" xmlns:xlink="http://www.w3.org/1999/xlink" width="500" zoomAndPan="magnify" viewBox="0 0 375 374.999991" height="500" preserveAspectRatio="xMidYMid meet" version="1.0"><defs><clipPath id="dc3e7d0331"><path d="M 6 56.171875 L 171 56.171875 L 171 318.671875 L 6 318.671875 Z M 6 56.171875 " clip-rule="nonzero"/></clipPath><clipPath id="f1623e4fb0"><path d="M 154 117 L 263 117 L 263 318.671875 L 154 318.671875 Z M 154 117 " clip-rule="nonzero"/></clipPath><clipPath id="b49d5fb1f5"><path d="M 278.515625 227.59375 L 370 227.59375 L 370 319 L 278.515625 319 Z M 278.515625 227.59375 " clip-rule="nonzero"/></clipPath></defs><g clip-path="url(#dc3e7d0331)"><path fill="#ff914d" d="M 169.632812 79.667969 C 169.855469 79.027344 170.042969 78.375 170.191406 77.710938 C 170.335938 77.046875 170.445312 76.375 170.511719 75.699219 C 170.578125 75.023438 170.605469 74.34375 170.59375 73.664062 C 170.582031 72.984375 170.527344 72.308594 170.433594 71.632812 C 170.34375 70.960938 170.210938 70.292969 170.039062 69.636719 C 169.867188 68.976562 169.65625 68.332031 169.40625 67.699219 C 169.15625 67.066406 168.871094 66.449219 168.550781 65.851562 C 168.230469 65.253906 167.871094 64.675781 167.480469 64.117188 C 167.09375 63.5625 166.667969 63.027344 166.214844 62.523438 C 165.761719 62.015625 165.28125 61.539062 164.769531 61.085938 C 164.261719 60.636719 163.726562 60.21875 163.164062 59.835938 C 162.605469 59.449219 162.023438 59.097656 161.421875 58.777344 C 160.820312 58.460938 160.203125 58.179688 159.570312 57.9375 C 158.933594 57.695312 158.285156 57.488281 157.628906 57.320312 C 156.96875 57.15625 156.300781 57.027344 155.628906 56.9375 C 154.953125 56.851562 154.277344 56.804688 153.59375 56.796875 L 119.964844 56.796875 C 117.863281 56.796875 115.773438 56.957031 113.699219 57.28125 C 111.621094 57.605469 109.582031 58.085938 107.582031 58.722656 C 105.578125 59.359375 103.636719 60.148438 101.757812 61.085938 C 99.878906 62.023438 98.082031 63.097656 96.367188 64.3125 C 94.652344 65.53125 93.042969 66.867188 91.535156 68.332031 C 90.027344 69.796875 88.640625 71.367188 87.375 73.046875 C 86.113281 74.722656 84.984375 76.488281 83.992188 78.339844 C 83 80.191406 82.15625 82.109375 81.457031 84.09375 L 7.261719 295.324219 C 7.035156 295.972656 6.847656 296.628906 6.699219 297.296875 C 6.550781 297.964844 6.445312 298.636719 6.378906 299.320312 C 6.3125 300 6.285156 300.683594 6.300781 301.367188 C 6.3125 302.050781 6.367188 302.730469 6.464844 303.410156 C 6.558594 304.085938 6.695312 304.757812 6.871094 305.417969 C 7.046875 306.078125 7.261719 306.726562 7.515625 307.363281 C 7.765625 308 8.058594 308.617188 8.382812 309.21875 C 8.710938 309.820312 9.074219 310.398438 9.46875 310.957031 C 9.863281 311.515625 10.292969 312.046875 10.753906 312.554688 C 11.210938 313.0625 11.699219 313.539062 12.214844 313.988281 C 12.734375 314.4375 13.273438 314.851562 13.839844 315.238281 C 14.40625 315.621094 14.996094 315.96875 15.601562 316.28125 C 16.210938 316.597656 16.835938 316.875 17.476562 317.113281 C 18.117188 317.351562 18.769531 317.550781 19.4375 317.714844 C 20.101562 317.875 20.773438 317.996094 21.453125 318.078125 C 22.132812 318.15625 22.8125 318.199219 23.496094 318.199219 L 68.085938 318.199219 C 69.394531 318.207031 70.695312 318.113281 71.984375 317.917969 C 73.277344 317.726562 74.546875 317.433594 75.792969 317.039062 C 77.042969 316.648438 78.25 316.160156 79.421875 315.582031 C 80.589844 315 81.710938 314.332031 82.777344 313.578125 C 83.84375 312.824219 84.84375 311.988281 85.78125 311.078125 C 86.71875 310.167969 87.578125 309.1875 88.363281 308.140625 C 89.148438 307.097656 89.84375 305.996094 90.457031 304.84375 C 91.070312 303.6875 91.589844 302.492188 92.015625 301.257812 L 134.441406 180.609375 Z M 169.632812 79.667969 " fill-opacity="1" fill-rule="nonzero"/></g><g clip-path="url(#f1623e4fb0)"><path fill="#ff914d" d="M 245.386719 318.199219 C 246.070312 318.195312 246.75 318.152344 247.429688 318.070312 C 248.109375 317.988281 248.777344 317.867188 249.441406 317.703125 C 250.105469 317.539062 250.757812 317.339844 251.398438 317.097656 C 252.035156 316.859375 252.660156 316.582031 253.265625 316.265625 C 253.871094 315.953125 254.457031 315.601562 255.023438 315.21875 C 255.585938 314.832031 256.128906 314.417969 256.640625 313.96875 C 257.15625 313.519531 257.644531 313.039062 258.101562 312.535156 C 258.558594 312.027344 258.988281 311.496094 259.382812 310.9375 C 259.777344 310.378906 260.136719 309.800781 260.460938 309.199219 C 260.789062 308.597656 261.078125 307.980469 261.328125 307.347656 C 261.582031 306.710938 261.792969 306.0625 261.96875 305.402344 C 262.144531 304.742188 262.277344 304.074219 262.371094 303.398438 C 262.46875 302.71875 262.523438 302.039062 262.535156 301.359375 C 262.550781 300.675781 262.523438 299.992188 262.457031 299.3125 C 262.390625 298.632812 262.28125 297.960938 262.132812 297.292969 C 261.988281 296.625 261.800781 295.96875 261.574219 295.324219 L 200.394531 121.039062 C 200.203125 120.53125 199.9375 120.0625 199.601562 119.632812 C 199.265625 119.203125 198.871094 118.835938 198.421875 118.527344 C 197.972656 118.214844 197.488281 117.980469 196.96875 117.816406 C 196.449219 117.65625 195.914062 117.574219 195.371094 117.574219 C 194.824219 117.574219 194.292969 117.65625 193.769531 117.816406 C 193.25 117.980469 192.765625 118.214844 192.316406 118.527344 C 191.867188 118.835938 191.476562 119.203125 191.136719 119.632812 C 190.800781 120.0625 190.535156 120.53125 190.34375 121.039062 L 165.859375 190.460938 L 157.0625 215.597656 C 156.242188 217.945312 155.621094 220.34375 155.203125 222.792969 C 154.785156 225.246094 154.574219 227.714844 154.574219 230.199219 C 154.574219 232.6875 154.785156 235.15625 155.203125 237.609375 C 155.621094 240.058594 156.242188 242.457031 157.0625 244.804688 L 176.871094 301.308594 C 177.296875 302.539062 177.820312 303.734375 178.433594 304.886719 C 179.046875 306.035156 179.746094 307.132812 180.53125 308.175781 C 181.316406 309.21875 182.175781 310.195312 183.113281 311.105469 C 184.050781 312.015625 185.054688 312.84375 186.121094 313.597656 C 187.1875 314.351562 188.304688 315.015625 189.476562 315.59375 C 190.644531 316.171875 191.851562 316.65625 193.097656 317.046875 C 194.34375 317.4375 195.613281 317.730469 196.902344 317.921875 C 198.195312 318.117188 199.492188 318.207031 200.796875 318.199219 Z M 245.386719 318.199219 " fill-opacity="1" fill-rule="nonzero"/></g><g clip-path="url(#b49d5fb1f5)"><path fill="#ff914d" d="M 324.128906 227.59375 C 349.324219 227.59375 369.746094 248.019531 369.746094 273.210938 C 369.746094 298.402344 349.324219 318.824219 324.128906 318.824219 C 298.9375 318.824219 278.515625 298.402344 278.515625 273.210938 C 278.515625 248.019531 298.9375 227.59375 324.128906 227.59375 Z M 324.128906 227.59375 " fill-opacity="1" fill-rule="evenodd"/></g></svg>