<svg xmlns="http://www.w3.org/2000/svg" xmlns:xlink="http://www.w3.org/1999/xlink" width="3401" zoomAndPan="magnify" viewBox="0 0 2551.5 3401.249977" height="4535" preserveAspectRatio="xMidYMid meet" version="1.0"><defs><clipPath id="5e912e5754"><path d="M 1019 1410 L 1252 1410 L 1252 1780.667969 L 1019 1780.667969 Z M 1019 1410 " clip-rule="nonzero"/></clipPath><clipPath id="3e5ce2e8e7"><path d="M 1404.75 1652.234375 L 1533.363281 1652.234375 L 1533.363281 1780.851562 L 1404.75 1780.851562 Z M 1404.75 1652.234375 " clip-rule="nonzero"/></clipPath></defs><g clip-path="url(#5e912e5754)"><path fill="#ec873b" d="M 1250.523438 1442.746094 C 1250.84375 1441.832031 1251.109375 1440.90625 1251.320312 1439.972656 C 1251.523438 1439.027344 1251.683594 1438.082031 1251.777344 1437.125 C 1251.875 1436.167969 1251.90625 1435.199219 1251.894531 1434.242188 C 1251.875 1433.277344 1251.796875 1432.320312 1251.671875 1431.363281 C 1251.53125 1430.417969 1251.339844 1429.472656 1251.109375 1428.535156 C 1250.863281 1427.601562 1250.566406 1426.6875 1250.203125 1425.796875 C 1249.855469 1424.902344 1249.449219 1424.03125 1248.992188 1423.179688 C 1248.546875 1422.332031 1248.035156 1421.511719 1247.484375 1420.726562 C 1246.929688 1419.9375 1246.335938 1419.183594 1245.6875 1418.460938 C 1245.050781 1417.75 1244.371094 1417.070312 1243.648438 1416.433594 C 1242.925781 1415.792969 1242.171875 1415.210938 1241.375 1414.65625 C 1240.574219 1414.117188 1239.757812 1413.617188 1238.90625 1413.167969 C 1238.058594 1412.710938 1237.175781 1412.320312 1236.28125 1411.96875 C 1235.378906 1411.628906 1234.464844 1411.339844 1233.53125 1411.097656 C 1232.59375 1410.863281 1231.648438 1410.683594 1230.691406 1410.554688 C 1229.746094 1410.4375 1228.78125 1410.363281 1227.824219 1410.351562 L 1180.199219 1410.351562 C 1177.226562 1410.351562 1174.269531 1410.585938 1171.328125 1411.042969 C 1168.382812 1411.5 1165.503906 1412.179688 1162.664062 1413.085938 C 1159.828125 1413.988281 1157.085938 1415.105469 1154.417969 1416.433594 C 1151.75 1417.761719 1149.210938 1419.28125 1146.789062 1421.003906 C 1144.355469 1422.722656 1142.078125 1424.617188 1139.945312 1426.6875 C 1137.808594 1428.769531 1135.839844 1430.992188 1134.054688 1433.363281 C 1132.261719 1435.742188 1130.667969 1438.238281 1129.261719 1440.863281 C 1127.859375 1443.488281 1126.660156 1446.199219 1125.671875 1449.003906 L 1020.605469 1748.117188 C 1020.289062 1749.03125 1020.023438 1749.957031 1019.820312 1750.902344 C 1019.609375 1751.847656 1019.460938 1752.804688 1019.363281 1753.773438 C 1019.269531 1754.738281 1019.226562 1755.707031 1019.246094 1756.671875 C 1019.269531 1757.640625 1019.34375 1758.605469 1019.480469 1759.5625 C 1019.617188 1760.519531 1019.808594 1761.476562 1020.054688 1762.410156 C 1020.308594 1763.347656 1020.605469 1764.261719 1020.96875 1765.164062 C 1021.328125 1766.066406 1021.734375 1766.9375 1022.203125 1767.789062 C 1022.660156 1768.640625 1023.179688 1769.457031 1023.730469 1770.253906 C 1024.296875 1771.042969 1024.902344 1771.796875 1025.550781 1772.519531 C 1026.207031 1773.230469 1026.898438 1773.910156 1027.632812 1774.539062 C 1028.355469 1775.175781 1029.128906 1775.769531 1029.925781 1776.3125 C 1030.726562 1776.855469 1031.5625 1777.34375 1032.425781 1777.789062 C 1033.285156 1778.234375 1034.167969 1778.628906 1035.070312 1778.96875 C 1035.984375 1779.308594 1036.910156 1779.585938 1037.84375 1779.820312 C 1038.789062 1780.042969 1039.746094 1780.210938 1040.703125 1780.328125 C 1041.671875 1780.445312 1042.628906 1780.5 1043.605469 1780.5 L 1106.742188 1780.5 C 1108.59375 1780.519531 1110.429688 1780.382812 1112.257812 1780.105469 C 1114.085938 1779.832031 1115.894531 1779.414062 1117.65625 1778.863281 C 1119.421875 1778.308594 1121.132812 1777.621094 1122.792969 1776.800781 C 1124.449219 1775.972656 1126.03125 1775.027344 1127.542969 1773.964844 C 1129.050781 1772.890625 1130.476562 1771.710938 1131.792969 1770.425781 C 1133.121094 1769.128906 1134.34375 1767.746094 1135.449219 1766.269531 C 1136.5625 1764.78125 1137.550781 1763.230469 1138.414062 1761.59375 C 1139.285156 1759.957031 1140.019531 1758.265625 1140.625 1756.511719 L 1200.703125 1585.675781 Z M 1250.523438 1442.746094 " fill-opacity="1" fill-rule="nonzero"/></g><path fill="#ec873b" d="M 1357.796875 1780.5 C 1358.765625 1780.5 1359.730469 1780.445312 1360.6875 1780.328125 C 1361.65625 1780.210938 1362.601562 1780.03125 1363.535156 1779.796875 C 1364.484375 1779.574219 1365.40625 1779.289062 1366.308594 1778.949219 C 1367.214844 1778.609375 1368.097656 1778.214844 1368.957031 1777.769531 C 1369.816406 1777.320312 1370.648438 1776.824219 1371.445312 1776.28125 C 1372.242188 1775.738281 1373.003906 1775.152344 1373.738281 1774.515625 C 1374.460938 1773.878906 1375.152344 1773.199219 1375.800781 1772.488281 C 1376.449219 1771.765625 1377.054688 1771.007812 1377.617188 1770.222656 C 1378.171875 1769.4375 1378.679688 1768.617188 1379.148438 1767.757812 C 1379.605469 1766.90625 1380.007812 1766.035156 1380.371094 1765.144531 C 1380.730469 1764.238281 1381.03125 1763.324219 1381.273438 1762.390625 C 1381.527344 1761.457031 1381.71875 1760.507812 1381.847656 1759.542969 C 1381.984375 1758.585938 1382.058594 1757.628906 1382.082031 1756.664062 C 1382.101562 1755.695312 1382.058594 1754.726562 1381.964844 1753.761719 C 1381.871094 1752.804688 1381.71875 1751.847656 1381.507812 1750.902344 C 1381.304688 1749.957031 1381.039062 1749.03125 1380.722656 1748.117188 L 1294.097656 1501.324219 C 1293.53125 1499.847656 1292.597656 1498.667969 1291.289062 1497.765625 C 1289.992188 1496.871094 1288.546875 1496.425781 1286.976562 1496.425781 C 1285.390625 1496.425781 1283.945312 1496.871094 1282.652344 1497.765625 C 1281.355469 1498.667969 1280.417969 1499.847656 1279.855469 1501.324219 L 1245.1875 1599.628906 L 1232.734375 1635.222656 C 1230.382812 1641.917969 1229.203125 1648.804688 1229.203125 1655.902344 C 1229.203125 1662.992188 1230.382812 1669.886719 1232.734375 1676.574219 L 1260.777344 1756.585938 C 1261.386719 1758.332031 1262.117188 1760.019531 1262.988281 1761.65625 C 1263.859375 1763.28125 1264.847656 1764.835938 1265.964844 1766.3125 C 1267.070312 1767.789062 1268.292969 1769.171875 1269.621094 1770.457031 C 1270.949219 1771.753906 1272.363281 1772.921875 1273.871094 1773.996094 C 1275.382812 1775.058594 1276.964844 1776.003906 1278.621094 1776.824219 C 1280.28125 1777.640625 1281.992188 1778.320312 1283.753906 1778.875 C 1285.519531 1779.425781 1287.316406 1779.839844 1289.144531 1780.117188 C 1290.972656 1780.382812 1292.808594 1780.519531 1294.660156 1780.5 Z M 1357.796875 1780.5 " fill-opacity="1" fill-rule="nonzero"/><g clip-path="url(#3e5ce2e8e7)"><path fill="#ec873b" d="M 1469.34375 1652.234375 C 1505.019531 1652.234375 1533.9375 1681.164062 1533.9375 1716.832031 C 1533.9375 1752.507812 1505.019531 1781.425781 1469.34375 1781.425781 C 1433.667969 1781.425781 1404.75 1752.507812 1404.75 1716.832031 C 1404.75 1681.164062 1433.667969 1652.234375 1469.34375 1652.234375 Z M 1469.34375 1652.234375 " fill-opacity="1" fill-rule="evenodd"/></g><path fill="#ec873b" d="M 895.070312 1925.671875 L 890.054688 1910.496094 L 857.660156 1910.496094 L 852.644531 1925.671875 L 829.222656 1925.671875 L 860.59375 1835.125 L 887.375 1835.125 L 918.621094 1925.671875 Z M 863.1875 1893.789062 L 884.527344 1893.789062 L 873.859375 1861.652344 Z M 863.1875 1893.789062 " fill-opacity="1" fill-rule="nonzero"/><path fill="#ec873b" d="M 933.679688 1916.277344 C 927.324219 1909.421875 924.15625 1900.632812 924.15625 1889.921875 C 924.15625 1879.207031 927.324219 1870.410156 933.679688 1863.523438 C 940.023438 1856.613281 947.757812 1853.148438 956.886719 1853.148438 C 966.007812 1853.148438 973.011719 1856.539062 977.886719 1863.308594 L 977.886719 1853.914062 L 999.910156 1853.914062 L 999.910156 1925.289062 C 999.910156 1935.320312 997.15625 1943.675781 991.660156 1950.371094 C 988.910156 1953.792969 985.15625 1956.449219 980.394531 1958.320312 C 975.636719 1960.210938 970.128906 1961.167969 963.902344 1961.167969 C 952.902344 1961.167969 944.1875 1958.925781 937.757812 1954.453125 C 931.351562 1950 927.707031 1943.195312 926.832031 1934.046875 L 948.472656 1934.046875 C 950.511719 1939.425781 955.65625 1942.125 963.902344 1942.125 C 967.917969 1942.125 971.257812 1940.773438 973.890625 1938.085938 C 976.550781 1935.386719 977.886719 1931.125 977.886719 1925.289062 L 977.886719 1915.257812 C 972.585938 1922.804688 965.476562 1926.566406 956.546875 1926.566406 C 947.640625 1926.566406 940.023438 1923.144531 933.679688 1916.277344 Z M 973.128906 1902.929688 C 976.292969 1899.847656 977.886719 1895.46875 977.886719 1889.792969 C 977.886719 1884.128906 976.292969 1879.78125 973.128906 1876.742188 C 969.949219 1873.714844 966.304688 1872.195312 962.203125 1872.195312 C 958.089844 1872.195312 954.445312 1873.746094 951.277344 1876.828125 C 948.097656 1879.890625 946.515625 1884.257812 946.515625 1889.921875 C 946.515625 1895.597656 948.097656 1899.941406 951.277344 1902.972656 C 954.445312 1906.011719 958.089844 1907.519531 962.203125 1907.519531 C 966.304688 1907.519531 969.949219 1905.988281 973.128906 1902.929688 Z M 973.128906 1902.929688 " fill-opacity="1" fill-rule="nonzero"/><path fill="#ec873b" d="M 1049.675781 1926.566406 C 1039.21875 1926.566406 1030.640625 1923.207031 1023.957031 1916.488281 C 1017.261719 1909.753906 1013.921875 1900.804688 1013.921875 1889.667969 C 1013.921875 1878.527344 1017.238281 1869.664062 1023.871094 1863.054688 C 1030.523438 1856.453125 1039.132812 1853.148438 1049.675781 1853.148438 C 1060.21875 1853.148438 1068.953125 1856.414062 1075.902344 1862.925781 C 1082.84375 1869.453125 1086.316406 1878.484375 1086.316406 1890.046875 C 1086.316406 1892.546875 1086.148438 1894.851562 1085.808594 1896.976562 L 1036.410156 1896.976562 C 1036.835938 1900.15625 1038.25 1902.757812 1040.664062 1904.800781 C 1043.0625 1906.820312 1045.65625 1907.816406 1048.441406 1907.816406 C 1051.214844 1907.816406 1053.289062 1907.542969 1054.648438 1906.96875 C 1056.03125 1906.40625 1057.050781 1905.851562 1057.707031 1905.308594 C 1058.355469 1904.746094 1059.195312 1903.820312 1060.21875 1902.546875 L 1083.980469 1902.546875 C 1081.941406 1909.753906 1077.828125 1915.554688 1071.652344 1919.976562 C 1065.46875 1924.375 1058.144531 1926.566406 1049.675781 1926.566406 Z M 1063.40625 1883.246094 C 1063.066406 1879.910156 1061.597656 1877.1875 1059.027344 1875.085938 C 1056.476562 1872.992188 1053.4375 1871.9375 1049.929688 1871.9375 C 1046.410156 1871.9375 1043.445312 1872.992188 1041.042969 1875.085938 C 1038.632812 1877.1875 1037.132812 1879.910156 1036.539062 1883.246094 Z M 1063.40625 1883.246094 " fill-opacity="1" fill-rule="nonzero"/><path fill="#ec873b" d="M 1122.457031 1853.914062 L 1122.457031 1864.457031 C 1126.984375 1856.921875 1134.234375 1853.148438 1144.179688 1853.148438 C 1152.425781 1853.148438 1159.101562 1855.902344 1164.203125 1861.398438 C 1169.304688 1866.871094 1171.855469 1874.320312 1171.855469 1883.757812 L 1171.855469 1925.671875 L 1149.960938 1925.671875 L 1149.960938 1886.691406 C 1149.960938 1882.078125 1148.738281 1878.507812 1146.304688 1875.976562 C 1143.859375 1873.460938 1140.503906 1872.195312 1136.230469 1872.195312 C 1131.949219 1872.195312 1128.578125 1873.460938 1126.113281 1875.976562 C 1123.667969 1878.507812 1122.457031 1882.078125 1122.457031 1886.691406 L 1122.457031 1925.671875 L 1100.480469 1925.671875 L 1100.480469 1853.914062 Z M 1122.457031 1853.914062 " fill-opacity="1" fill-rule="nonzero"/><path fill="#ec873b" d="M 1234.207031 1902.929688 C 1237.375 1899.847656 1238.96875 1895.46875 1238.96875 1889.792969 C 1238.96875 1884.128906 1237.375 1879.78125 1234.207031 1876.742188 C 1231.027344 1873.714844 1227.382812 1872.195312 1223.28125 1872.195312 C 1219.167969 1872.195312 1215.523438 1873.746094 1212.355469 1876.828125 C 1209.179688 1879.890625 1207.59375 1884.257812 1207.59375 1889.921875 C 1207.59375 1895.597656 1209.179688 1899.941406 1212.355469 1902.972656 C 1215.523438 1906.011719 1219.167969 1907.519531 1223.28125 1907.519531 C 1227.382812 1907.519531 1231.027344 1905.988281 1234.207031 1902.929688 Z M 1194.757812 1916.277344 C 1188.402344 1909.421875 1185.234375 1900.632812 1185.234375 1889.921875 C 1185.234375 1879.207031 1188.402344 1870.410156 1194.757812 1863.523438 C 1201.101562 1856.613281 1208.839844 1853.148438 1217.96875 1853.148438 C 1227.085938 1853.148438 1234.089844 1856.539062 1238.96875 1863.308594 L 1238.96875 1830.535156 L 1260.988281 1830.535156 L 1260.988281 1925.671875 L 1238.96875 1925.671875 L 1238.96875 1915.257812 C 1233.664062 1922.804688 1226.554688 1926.566406 1217.628906 1926.566406 C 1208.722656 1926.566406 1201.101562 1923.144531 1194.757812 1916.277344 Z M 1194.757812 1916.277344 " fill-opacity="1" fill-rule="nonzero"/><path fill="#ec873b" d="M 1323.976562 1902.929688 C 1327.144531 1899.847656 1328.738281 1895.46875 1328.738281 1889.792969 C 1328.738281 1884.128906 1327.144531 1879.78125 1323.976562 1876.742188 C 1320.800781 1873.714844 1317.152344 1872.195312 1313.050781 1872.195312 C 1308.9375 1872.195312 1305.292969 1873.746094 1302.125 1876.828125 C 1298.949219 1879.890625 1297.367188 1884.257812 1297.367188 1889.921875 C 1297.367188 1895.597656 1298.949219 1899.941406 1302.125 1902.972656 C 1305.292969 1906.011719 1308.9375 1907.519531 1313.050781 1907.519531 C 1317.152344 1907.519531 1320.800781 1905.988281 1323.976562 1902.929688 Z M 1284.527344 1916.277344 C 1278.171875 1909.421875 1275.003906 1900.632812 1275.003906 1889.921875 C 1275.003906 1879.207031 1278.171875 1870.410156 1284.527344 1863.523438 C 1290.871094 1856.613281 1298.609375 1853.148438 1307.738281 1853.148438 C 1316.855469 1853.148438 1323.859375 1856.539062 1328.738281 1863.308594 L 1328.738281 1853.914062 L 1350.757812 1853.914062 L 1350.757812 1925.671875 L 1328.738281 1925.671875 L 1328.738281 1915.257812 C 1323.433594 1922.804688 1316.324219 1926.566406 1307.398438 1926.566406 C 1298.492188 1926.566406 1290.871094 1923.144531 1284.527344 1916.277344 Z M 1284.527344 1916.277344 " fill-opacity="1" fill-rule="nonzero"/><path fill="#ec873b" d="M 1438.832031 1863.054688 C 1438.832031 1869.15625 1436.640625 1875.019531 1432.285156 1880.652344 C 1429.957031 1883.578125 1426.503906 1885.957031 1421.910156 1887.796875 C 1417.34375 1889.644531 1411.933594 1890.558594 1405.671875 1890.558594 L 1392.027344 1890.558594 L 1392.027344 1925.671875 L 1370.050781 1925.671875 L 1370.050781 1835.378906 L 1405.671875 1835.378906 C 1416.128906 1835.378906 1424.261719 1838.089844 1430.074219 1843.5 C 1435.910156 1848.921875 1438.832031 1855.433594 1438.832031 1863.054688 Z M 1392.027344 1873.851562 L 1405.671875 1873.851562 C 1409.011719 1873.851562 1411.644531 1872.875 1413.578125 1870.917969 C 1415.503906 1868.941406 1416.46875 1866.347656 1416.46875 1863.140625 C 1416.46875 1859.910156 1415.472656 1857.273438 1413.496094 1855.234375 C 1411.539062 1853.171875 1408.925781 1852.128906 1405.671875 1852.128906 L 1392.027344 1852.128906 Z M 1392.027344 1873.851562 " fill-opacity="1" fill-rule="nonzero"/><path fill="#ec873b" d="M 1495.167969 1903.183594 C 1498.078125 1900.101562 1499.546875 1895.640625 1499.546875 1889.792969 C 1499.546875 1883.960938 1498.035156 1879.527344 1495.039062 1876.488281 C 1492.03125 1873.460938 1488.472656 1871.9375 1484.371094 1871.9375 C 1480.257812 1871.9375 1476.71875 1873.460938 1473.742188 1876.488281 C 1470.789062 1879.527344 1469.320312 1883.960938 1469.320312 1889.792969 C 1469.320312 1895.640625 1470.832031 1900.101562 1473.871094 1903.183594 C 1476.929688 1906.277344 1480.511719 1907.816406 1484.625 1907.816406 C 1488.726562 1907.816406 1492.246094 1906.277344 1495.167969 1903.183594 Z M 1457.800781 1916.40625 C 1450.574219 1909.636719 1446.960938 1900.71875 1446.960938 1889.667969 C 1446.960938 1878.613281 1450.554688 1869.769531 1457.757812 1863.140625 C 1464.953125 1856.488281 1473.871094 1853.148438 1484.496094 1853.148438 C 1495.125 1853.148438 1504.007812 1856.488281 1511.152344 1863.140625 C 1518.3125 1869.769531 1521.90625 1878.613281 1521.90625 1889.667969 C 1521.90625 1900.71875 1518.347656 1909.636719 1511.234375 1916.40625 C 1504.117188 1923.183594 1495.253906 1926.566406 1484.625 1926.566406 C 1473.996094 1926.566406 1465.046875 1923.183594 1457.800781 1916.40625 Z M 1457.800781 1916.40625 " fill-opacity="1" fill-rule="nonzero"/><path fill="#ec873b" d="M 1558.0625 1853.914062 L 1558.0625 1864.457031 C 1562.589844 1856.921875 1569.839844 1853.148438 1579.785156 1853.148438 C 1588.03125 1853.148438 1594.707031 1855.902344 1599.808594 1861.398438 C 1604.910156 1866.871094 1607.460938 1874.320312 1607.460938 1883.757812 L 1607.460938 1925.671875 L 1585.566406 1925.671875 L 1585.566406 1886.691406 C 1585.566406 1882.078125 1584.34375 1878.507812 1581.910156 1875.976562 C 1579.46875 1873.460938 1576.109375 1872.195312 1571.835938 1872.195312 C 1567.554688 1872.195312 1564.183594 1873.460938 1561.71875 1875.976562 C 1559.273438 1878.507812 1558.0625 1882.078125 1558.0625 1886.691406 L 1558.0625 1925.671875 L 1536.085938 1925.671875 L 1536.085938 1853.914062 Z M 1558.0625 1853.914062 " fill-opacity="1" fill-rule="nonzero"/><path fill="#ec873b" d="M 1656.59375 1907.011719 L 1664.417969 1907.011719 L 1664.417969 1925.671875 L 1653.234375 1925.671875 C 1645.179688 1925.671875 1638.953125 1923.90625 1634.53125 1920.359375 C 1630.109375 1916.789062 1627.898438 1910.667969 1627.898438 1901.992188 L 1627.898438 1872.195312 L 1621.226562 1872.195312 L 1621.226562 1853.914062 L 1627.898438 1853.914062 L 1627.898438 1836.441406 L 1649.878906 1836.441406 L 1649.878906 1853.914062 L 1664.289062 1853.914062 L 1664.289062 1872.195312 L 1649.878906 1872.195312 L 1649.878906 1901.992188 C 1649.878906 1905.339844 1652.109375 1907.011719 1656.59375 1907.011719 Z M 1656.59375 1907.011719 " fill-opacity="1" fill-rule="nonzero"/><path fill="#ec873b" d="M 1722.550781 1903.183594 C 1725.464844 1900.101562 1726.929688 1895.640625 1726.929688 1889.792969 C 1726.929688 1883.960938 1725.421875 1879.527344 1722.421875 1876.488281 C 1719.414062 1873.460938 1715.855469 1871.9375 1711.753906 1871.9375 C 1707.640625 1871.9375 1704.101562 1873.460938 1701.125 1876.488281 C 1698.171875 1879.527344 1696.703125 1883.960938 1696.703125 1889.792969 C 1696.703125 1895.640625 1698.214844 1900.101562 1701.253906 1903.183594 C 1704.3125 1906.277344 1707.894531 1907.816406 1712.007812 1907.816406 C 1716.109375 1907.816406 1719.628906 1906.277344 1722.550781 1903.183594 Z M 1685.183594 1916.40625 C 1677.957031 1909.636719 1674.34375 1900.71875 1674.34375 1889.667969 C 1674.34375 1878.613281 1677.9375 1869.769531 1685.140625 1863.140625 C 1692.335938 1856.488281 1701.253906 1853.148438 1711.882812 1853.148438 C 1722.507812 1853.148438 1731.394531 1856.488281 1738.535156 1863.140625 C 1745.699219 1869.769531 1749.289062 1878.613281 1749.289062 1889.667969 C 1749.289062 1900.71875 1745.730469 1909.636719 1738.621094 1916.40625 C 1731.5 1923.183594 1722.636719 1926.566406 1712.007812 1926.566406 C 1701.382812 1926.566406 1692.433594 1923.183594 1685.183594 1916.40625 Z M 1685.183594 1916.40625 " fill-opacity="1" fill-rule="nonzero"/></svg>