<svg xmlns="http://www.w3.org/2000/svg" xmlns:xlink="http://www.w3.org/1999/xlink" width="500" zoomAndPan="magnify" viewBox="0 0 375 374.999991" height="500" preserveAspectRatio="xMidYMid meet" version="1.0"><defs><clipPath id="d06deda297"><path d="M 47 19.269531 L 328 19.269531 L 328 356 L 47 356 Z M 47 19.269531 " clip-rule="nonzero"/></clipPath></defs><g clip-path="url(#d06deda297)"><path fill="#737373" d="M 299.4375 145.441406 L 271.398438 145.441406 L 271.398438 89.367188 C 271.398438 50.648438 240.019531 19.269531 201.304688 19.269531 L 173.269531 19.269531 C 134.550781 19.269531 103.171875 50.648438 103.171875 89.367188 L 103.171875 145.441406 L 75.132812 145.441406 C 59.71875 145.441406 47.097656 158.066406 47.097656 173.480469 L 47.097656 327.691406 C 47.097656 343.105469 59.71875 355.726562 75.132812 355.726562 L 299.4375 355.726562 C 314.851562 355.726562 327.472656 343.105469 327.472656 327.691406 L 327.472656 173.480469 C 327.472656 158.066406 314.851562 145.441406 299.4375 145.441406 Z M 201.304688 253.703125 L 201.304688 299.652344 L 173.269531 299.652344 L 173.269531 253.703125 C 164.914062 248.859375 159.246094 239.90625 159.246094 229.554688 C 159.246094 214.085938 171.800781 201.519531 187.285156 201.519531 C 202.769531 201.519531 215.324219 214.085938 215.324219 229.554688 C 215.324219 239.90625 209.65625 248.859375 201.304688 253.703125 Z M 243.359375 145.441406 L 131.210938 145.441406 L 131.210938 89.367188 C 131.210938 66.148438 150.046875 47.308594 173.269531 47.308594 L 201.304688 47.308594 C 224.523438 47.308594 243.359375 66.148438 243.359375 89.367188 Z M 243.359375 145.441406 " fill-opacity="1" fill-rule="nonzero"/></g></svg>