<svg xmlns="http://www.w3.org/2000/svg" xmlns:xlink="http://www.w3.org/1999/xlink" width="500" zoomAndPan="magnify" viewBox="0 0 375 374.999991" height="500" preserveAspectRatio="xMidYMid meet" version="1.0"><defs><clipPath id="acc945b5db"><path d="M 31.402344 31.402344 L 343.402344 31.402344 L 343.402344 343.402344 L 31.402344 343.402344 Z M 31.402344 31.402344 " clip-rule="nonzero"/></clipPath><clipPath id="2daca155e4"><path d="M 105.304688 105.304688 L 269.554688 105.304688 L 269.554688 269 L 105.304688 269 Z M 105.304688 105.304688 " clip-rule="nonzero"/></clipPath></defs><g clip-path="url(#acc945b5db)"><path fill="#222222" d="M 187.496094 31.402344 C 273.703125 31.402344 343.589844 101.289062 343.589844 187.496094 C 343.589844 273.703125 273.703125 343.589844 187.496094 343.589844 C 101.289062 343.589844 31.402344 273.703125 31.402344 187.496094 C 31.402344 101.289062 101.289062 31.402344 187.496094 31.402344 Z M 187.496094 31.402344 " fill-opacity="1" fill-rule="evenodd"/></g><g clip-path="url(#2daca155e4)"><path fill="#ffffff" d="M 187.296875 105.121094 C 186.402344 105.132812 185.523438 105.230469 184.652344 105.417969 C 183.777344 105.605469 182.933594 105.875 182.113281 106.226562 C 181.296875 106.582031 180.519531 107.011719 179.785156 107.515625 C 179.050781 108.023438 178.375 108.59375 177.753906 109.234375 C 177.128906 109.875 176.578125 110.566406 176.09375 111.316406 C 175.609375 112.0625 175.199219 112.851562 174.871094 113.679688 C 174.542969 114.507812 174.296875 115.359375 174.132812 116.238281 C 173.972656 117.113281 173.898438 118 173.910156 118.890625 L 173.910156 173.230469 L 119.570312 173.230469 C 118.667969 173.21875 117.777344 173.292969 116.890625 173.457031 C 116.007812 173.621094 115.144531 173.871094 114.3125 174.207031 C 113.476562 174.542969 112.683594 174.957031 111.929688 175.453125 C 111.175781 175.945312 110.480469 176.507812 109.839844 177.140625 C 109.199219 177.773438 108.625 178.460938 108.121094 179.207031 C 107.617188 179.953125 107.191406 180.742188 106.84375 181.570312 C 106.496094 182.402344 106.234375 183.257812 106.054688 184.140625 C 105.878906 185.023438 105.789062 185.914062 105.789062 186.816406 C 105.789062 187.714844 105.878906 188.605469 106.054688 189.488281 C 106.234375 190.371094 106.496094 191.226562 106.84375 192.058594 C 107.191406 192.890625 107.617188 193.675781 108.121094 194.421875 C 108.625 195.167969 109.199219 195.859375 109.839844 196.488281 C 110.480469 197.121094 111.175781 197.683594 111.929688 198.179688 C 112.683594 198.671875 113.476562 199.085938 114.3125 199.421875 C 115.144531 199.757812 116.007812 200.007812 116.890625 200.171875 C 117.777344 200.335938 118.667969 200.414062 119.570312 200.398438 L 173.910156 200.398438 L 173.910156 254.742188 C 173.898438 255.640625 173.972656 256.53125 174.136719 257.417969 C 174.300781 258.304688 174.550781 259.164062 174.886719 260 C 175.222656 260.832031 175.636719 261.628906 176.132812 262.378906 C 176.625 263.132812 177.1875 263.832031 177.820312 264.472656 C 178.453125 265.113281 179.140625 265.683594 179.886719 266.1875 C 180.632812 266.691406 181.421875 267.117188 182.25 267.464844 C 183.082031 267.8125 183.9375 268.074219 184.820312 268.253906 C 185.703125 268.429688 186.59375 268.519531 187.496094 268.519531 C 188.394531 268.519531 189.285156 268.429688 190.167969 268.253906 C 191.050781 268.074219 191.90625 267.8125 192.738281 267.464844 C 193.570312 267.117188 194.355469 266.691406 195.101562 266.1875 C 195.847656 265.683594 196.535156 265.113281 197.167969 264.472656 C 197.800781 263.832031 198.363281 263.132812 198.855469 262.378906 C 199.351562 261.628906 199.765625 260.832031 200.101562 260 C 200.4375 259.164062 200.6875 258.304688 200.851562 257.417969 C 201.015625 256.53125 201.09375 255.640625 201.078125 254.742188 L 201.078125 200.398438 L 255.417969 200.398438 C 256.320312 200.414062 257.210938 200.335938 258.097656 200.171875 C 258.980469 200.007812 259.84375 199.757812 260.675781 199.421875 C 261.511719 199.085938 262.308594 198.671875 263.058594 198.179688 C 263.8125 197.683594 264.507812 197.121094 265.152344 196.488281 C 265.792969 195.859375 266.363281 195.167969 266.867188 194.421875 C 267.371094 193.675781 267.796875 192.890625 268.144531 192.058594 C 268.492188 191.226562 268.753906 190.371094 268.933594 189.488281 C 269.109375 188.605469 269.199219 187.714844 269.199219 186.816406 C 269.199219 185.914062 269.109375 185.023438 268.933594 184.140625 C 268.753906 183.257812 268.492188 182.402344 268.144531 181.570312 C 267.796875 180.742188 267.371094 179.953125 266.867188 179.207031 C 266.363281 178.460938 265.792969 177.773438 265.152344 177.140625 C 264.507812 176.507812 263.8125 175.945312 263.058594 175.453125 C 262.308594 174.957031 261.511719 174.542969 260.675781 174.207031 C 259.84375 173.871094 258.980469 173.621094 258.097656 173.457031 C 257.210938 173.292969 256.320312 173.21875 255.417969 173.230469 L 201.078125 173.230469 L 201.078125 118.890625 C 201.09375 117.980469 201.015625 117.082031 200.847656 116.1875 C 200.675781 115.296875 200.421875 114.429688 200.082031 113.585938 C 199.738281 112.746094 199.316406 111.945312 198.8125 111.191406 C 198.3125 110.433594 197.738281 109.734375 197.097656 109.09375 C 196.453125 108.449219 195.753906 107.878906 194.996094 107.378906 C 194.238281 106.875 193.441406 106.453125 192.597656 106.113281 C 191.757812 105.773438 190.890625 105.515625 189.996094 105.351562 C 189.105469 105.183594 188.203125 105.105469 187.296875 105.121094 Z M 187.296875 105.121094 " fill-opacity="1" fill-rule="nonzero"/></g></svg>