<svg xmlns="http://www.w3.org/2000/svg" xmlns:xlink="http://www.w3.org/1999/xlink" width="500" zoomAndPan="magnify" viewBox="0 0 375 374.999991" height="500" preserveAspectRatio="xMidYMid meet" version="1.0"><defs><clipPath id="500aec9078"><path d="M 17.648438 37.5 L 348.398438 37.5 L 348.398438 368.25 L 17.648438 368.25 Z M 17.648438 37.5 " clip-rule="nonzero"/></clipPath></defs><g clip-path="url(#500aec9078)"><path fill="#d9d9d9" d="M 348.3125 202.839844 C 348.3125 294.148438 274.292969 368.164062 182.988281 368.164062 C 91.679688 368.164062 17.664062 294.148438 17.664062 202.839844 C 17.664062 111.535156 91.679688 37.515625 182.988281 37.515625 C 274.292969 37.515625 348.3125 111.535156 348.3125 202.839844 " fill-opacity="1" fill-rule="nonzero"/></g><path fill="#ffffff" d="M 264.546875 121.28125 C 256.554688 113.289062 243.597656 113.289062 235.609375 121.28125 L 182.988281 173.898438 L 130.367188 121.28125 C 122.378906 113.289062 109.417969 113.289062 101.429688 121.28125 C 93.4375 129.273438 93.4375 142.230469 101.429688 150.21875 L 154.046875 202.839844 L 101.429688 255.457031 C 93.4375 263.449219 93.4375 276.40625 101.429688 284.398438 C 109.417969 292.390625 122.378906 292.390625 130.367188 284.398438 L 182.988281 231.78125 L 235.609375 284.398438 C 243.597656 292.390625 256.554688 292.390625 264.546875 284.398438 C 272.539062 276.40625 272.539062 263.449219 264.546875 255.457031 L 211.929688 202.839844 L 264.546875 150.21875 C 272.539062 142.230469 272.539062 129.273438 264.546875 121.28125 " fill-opacity="1" fill-rule="nonzero"/></svg>