<svg xmlns="http://www.w3.org/2000/svg" xmlns:xlink="http://www.w3.org/1999/xlink" width="500" zoomAndPan="magnify" viewBox="0 0 375 374.999991" height="500" preserveAspectRatio="xMidYMid meet" version="1.0"><defs><clipPath id="bece7ccf98"><path d="M 21.679688 21.679688 L 353.980469 21.679688 L 353.980469 353.320312 L 21.679688 353.320312 Z M 21.679688 21.679688 " clip-rule="nonzero"/></clipPath><clipPath id="431982e39a"><path d="M 353.320312 187.503906 C 353.320312 279.078125 279.078125 353.320312 187.5 353.320312 C 95.921875 353.320312 21.679688 279.078125 21.679688 187.503906 C 21.679688 95.921875 95.921875 21.679688 187.5 21.679688 C 279.078125 21.679688 353.320312 95.921875 353.320312 187.503906 Z M 353.320312 187.503906 " clip-rule="nonzero"/></clipPath><clipPath id="9d5a2f8b8d"><path d="M 90 139 L 284.890625 139 L 284.890625 289 L 90 289 Z M 90 139 " clip-rule="nonzero"/></clipPath></defs><g clip-path="url(#bece7ccf98)"><g clip-path="url(#431982e39a)"><path fill="#ffffff" d="M 21.679688 21.679688 L 353.316406 21.679688 L 353.316406 353.320312 L 21.679688 353.320312 Z M 21.679688 21.679688 " fill-opacity="1" fill-rule="nonzero"/></g></g><g clip-path="url(#9d5a2f8b8d)"><path fill="#000000" d="M 283.929688 229.84375 C 281.636719 226.871094 278.976562 233.992188 278.386719 235.078125 C 276.558594 238.453125 273.304688 241.113281 269.527344 241.640625 C 262.433594 242.636719 262.609375 239.53125 246.078125 229.503906 C 244.15625 228.359375 239.945312 226.6875 238.890625 224.765625 C 238.519531 224.054688 238.859375 223.0625 238.738281 222.042969 C 238.519531 220.308594 237.621094 218.390625 236.753906 216.777344 C 235.390625 214.238281 234.988281 214.582031 231.488281 214.582031 C 226.4375 214.558594 202.707031 217.875 191.78125 215.507812 C 198.726562 196.234375 201.839844 199.472656 200.824219 189.359375 C 203.699219 188.976562 206.300781 188.726562 209.371094 188.726562 C 209.820312 188.726562 212 180.460938 212.496094 178.332031 C 229.921875 174.585938 227.535156 175.160156 244.558594 164.640625 C 246.292969 163.554688 248.214844 163.554688 250.011719 162.65625 C 252.550781 161.386719 253.820312 159.25 256.765625 158.601562 C 257.910156 158.355469 258.871094 158.355469 259.085938 156.929688 C 259.367188 155.226562 257.972656 154.761719 257.011719 153.769531 C 255.585938 152.253906 257.351562 151.292969 258.871094 151.976562 C 259.242188 152.128906 259.460938 152.71875 259.769531 152.964844 C 266.5625 159.207031 262.167969 147.652344 257.289062 149.777344 C 241.953125 156.398438 255.890625 154.5 234.863281 161.757812 C 230.796875 163.144531 226.125 162.824219 223 165.445312 C 219.863281 168.078125 215.53125 168.980469 213.492188 168.726562 L 213.46875 168.890625 C 211.976562 168.625 210.484375 168.367188 208.996094 168.105469 C 209.457031 167.59375 209.78125 166.730469 210.113281 165.9375 C 212.21875 167.085938 210.917969 165.9375 212.996094 165.566406 C 213.769531 165.382812 213.492188 166.09375 214.296875 166 C 217.503906 165.632812 218.191406 160.882812 218.910156 159.097656 C 219.6875 157.207031 219.964844 155.535156 218.757812 153.894531 C 216.742188 151.140625 214.730469 148.691406 211.847656 146.929688 C 209.214844 145.316406 208.566406 141.820312 205.902344 140.394531 C 202.988281 138.847656 200.695312 141.292969 197.785156 141.109375 C 196.207031 140.984375 195.027344 139.589844 193.355469 139.558594 C 191.867188 139.527344 190.535156 140.300781 189.792969 141.570312 C 189.050781 142.78125 189.296875 144.234375 187.8125 144.730469 C 186.664062 145.101562 184.960938 143.988281 183.878906 144.574219 C 181.214844 145.96875 185.671875 149.25 182.949219 150.675781 C 182.296875 151.015625 181.523438 150.425781 181.152344 151.789062 C 180.933594 152.59375 181.398438 153.832031 181.523438 154.605469 C 182.269531 159.164062 179.617188 158.710938 181.800781 162.90625 C 182.171875 163.585938 183.9375 165.257812 183.660156 165.96875 C 183.597656 166.15625 182.019531 164.824219 181.863281 165.722656 C 181.816406 165.976562 182.253906 166.257812 182.722656 166.484375 C 182.714844 166.484375 182.703125 166.488281 182.695312 166.488281 C 176.710938 164.011719 177.976562 165.898438 175.140625 166.15625 C 172.257812 166.355469 168.785156 164.171875 166.003906 165.476562 C 165.074219 165.910156 164.425781 166.835938 163.433594 166.867188 C 162.253906 166.898438 160.863281 165.566406 159.808594 165.132812 C 159.136719 164.851562 150.113281 161.441406 146.765625 161.480469 C 141.777344 161.605469 142.113281 160.636719 141.253906 159.808594 C 138.777344 157.394531 135.460938 159.128906 133.820312 161.386719 C 133.199219 162.253906 132.984375 163.027344 132.300781 163.804688 C 131.402344 164.824219 130.84375 164.515625 130.039062 164.949219 C 127.652344 166.28125 128.058594 171.488281 132.921875 170.273438 C 134.347656 169.933594 133.664062 169.871094 135.058594 170.367188 C 136.765625 171.035156 139.839844 171.015625 141.5625 170.769531 C 142.679688 170.613281 142.832031 170.121094 143.609375 169.808594 C 146.210938 168.757812 149.957031 169.625 152.25 170.832031 C 159.722656 174.808594 159.636719 176.867188 162.9375 176.464844 C 162.75 177.550781 162.347656 178.570312 162.101562 179.65625 C 161.761719 181.175781 162.550781 187.796875 162.441406 193.621094 C 162.382812 197.960938 161.242188 196.363281 157.269531 202.257812 C 156.863281 202.847656 155.96875 203.621094 155.84375 204.332031 C 155.792969 204.652344 157.144531 211.285156 155.535156 214.457031 C 154.3125 216.820312 148.898438 218.136719 151.972656 223.125 C 152.34375 223.746094 152.839844 224.859375 153.242188 223.527344 C 154.882812 226.914062 155.5625 229.277344 157.230469 227.898438 C 157.492188 228.253906 157.753906 228.609375 158.011719 228.96875 C 153.914062 227.964844 151.628906 233.226562 152.03125 236.625 C 152.4375 239.980469 156.117188 247.921875 152.125 255.976562 C 151.660156 256.9375 146.242188 267.558594 147.292969 267.835938 C 146.859375 267.710938 145.835938 266.132812 145.34375 265.824219 C 144.164062 265.082031 142.246094 264.769531 140.945312 264.367188 C 127.546875 260.148438 138.878906 264.632812 125.917969 258.792969 C 124.773438 258.269531 123.316406 258.113281 122.265625 257.464844 C 120.28125 256.257812 120.097656 254.058594 118.917969 252.230469 C 116.253906 248.191406 110.105469 244.527344 108.976562 244.707031 C 107.179688 244.984375 109.070312 244.894531 108.542969 246.132812 C 105.523438 253.121094 93.199219 248.675781 90.761719 252.167969 C 89.894531 253.40625 91.382812 255.824219 92.371094 256.257812 C 93.984375 257 96.679688 256.226562 98.476562 256.597656 C 101.167969 257.152344 103.988281 258.515625 106.558594 259.351562 C 112.625 261.335938 116.117188 264.738281 126.042969 273.625 C 129.359375 276.566406 132.703125 276.691406 136.574219 278.609375 C 142.832031 281.707031 144.722656 291.800781 153.457031 287.652344 C 157.144531 285.886719 159.003906 281.613281 161.820312 278.765625 C 166.109375 274.398438 171.566406 263.832031 174.304688 258.390625 C 181.128906 250.4375 183.074219 250.476562 184.234375 243.179688 C 191.566406 240.242188 190.378906 240.433594 201.503906 240.433594 C 206.828125 240.433594 211.136719 240.277344 216.152344 238.453125 C 221.390625 236.5 225.757812 240.648438 230.835938 239.472656 C 233.003906 238.976562 232.199219 237.367188 233.964844 236.347656 C 235.667969 235.386719 237.742188 238.082031 239.261719 239.320312 C 245.871094 244.800781 252.089844 242.75 261.039062 250.773438 C 267.578125 256.730469 267.707031 254.773438 270.050781 256.78125 C 270.453125 257.121094 270.859375 258.390625 271.292969 258.546875 C 272.160156 258.886719 277.859375 245.015625 278.324219 244.210938 C 280.179688 241.207031 282.007812 240.742188 282.96875 237.210938 C 283.339844 235.914062 284.890625 231.082031 283.929688 229.84375 Z M 283.929688 229.84375 " fill-opacity="1" fill-rule="nonzero"/></g></svg>