<svg xmlns="http://www.w3.org/2000/svg" xmlns:xlink="http://www.w3.org/1999/xlink" width="500" zoomAndPan="magnify" viewBox="0 0 375 374.999991" height="500" preserveAspectRatio="xMidYMid meet" version="1.0"><defs><g/><clipPath id="7128f1756f"><path d="M 93 80.5625 L 179 80.5625 L 179 217 L 93 217 Z M 93 80.5625 " clip-rule="nonzero"/></clipPath><clipPath id="5c15a82bf3"><path d="M 235.066406 169.792969 L 282.339844 169.792969 L 282.339844 217.066406 L 235.066406 217.066406 Z M 235.066406 169.792969 " clip-rule="nonzero"/></clipPath></defs><g clip-path="url(#7128f1756f)"><path fill="#ffffff" d="M 178.378906 92.792969 C 178.496094 92.457031 178.59375 92.117188 178.671875 91.773438 C 178.746094 91.425781 178.804688 91.078125 178.839844 90.726562 C 178.875 90.375 178.886719 90.019531 178.882812 89.667969 C 178.875 89.3125 178.847656 88.960938 178.800781 88.609375 C 178.75 88.261719 178.679688 87.914062 178.59375 87.570312 C 178.503906 87.226562 178.394531 86.890625 178.261719 86.5625 C 178.132812 86.234375 177.984375 85.914062 177.816406 85.601562 C 177.652344 85.289062 177.464844 84.988281 177.261719 84.699219 C 177.058594 84.410156 176.839844 84.132812 176.601562 83.867188 C 176.367188 83.605469 176.117188 83.355469 175.851562 83.121094 C 175.585938 82.886719 175.308594 82.671875 175.015625 82.46875 C 174.722656 82.269531 174.421875 82.085938 174.109375 81.921875 C 173.796875 81.753906 173.472656 81.609375 173.144531 81.480469 C 172.8125 81.355469 172.476562 81.25 172.132812 81.160156 C 171.789062 81.074219 171.441406 81.007812 171.089844 80.960938 C 170.742188 80.917969 170.386719 80.890625 170.035156 80.886719 L 152.53125 80.886719 C 151.4375 80.886719 150.351562 80.972656 149.269531 81.140625 C 148.1875 81.308594 147.128906 81.558594 146.085938 81.890625 C 145.042969 82.222656 144.035156 82.632812 143.054688 83.121094 C 142.074219 83.609375 141.140625 84.167969 140.25 84.800781 C 139.355469 85.433594 138.519531 86.128906 137.734375 86.890625 C 136.949219 87.65625 136.226562 88.472656 135.570312 89.34375 C 134.910156 90.21875 134.324219 91.136719 133.808594 92.101562 C 133.292969 93.066406 132.851562 94.0625 132.488281 95.09375 L 93.871094 205.035156 C 93.753906 205.371094 93.65625 205.710938 93.582031 206.058594 C 93.503906 206.40625 93.449219 206.757812 93.414062 207.113281 C 93.378906 207.46875 93.363281 207.824219 93.371094 208.179688 C 93.378906 208.535156 93.40625 208.890625 93.457031 209.242188 C 93.507812 209.59375 93.578125 209.945312 93.667969 210.289062 C 93.761719 210.632812 93.871094 210.96875 94.003906 211.300781 C 94.136719 211.632812 94.285156 211.953125 94.457031 212.265625 C 94.625 212.578125 94.816406 212.878906 95.019531 213.171875 C 95.226562 213.460938 95.449219 213.738281 95.6875 214.003906 C 95.929688 214.265625 96.183594 214.515625 96.453125 214.746094 C 96.71875 214.980469 97.003906 215.199219 97.296875 215.398438 C 97.589844 215.597656 97.898438 215.777344 98.214844 215.941406 C 98.53125 216.105469 98.855469 216.25 99.1875 216.375 C 99.523438 216.5 99.863281 216.601562 100.207031 216.6875 C 100.554688 216.769531 100.90625 216.832031 101.257812 216.875 C 101.613281 216.917969 101.964844 216.9375 102.324219 216.9375 L 125.53125 216.9375 C 126.210938 216.945312 126.886719 216.894531 127.558594 216.792969 C 128.230469 216.691406 128.894531 216.539062 129.542969 216.335938 C 130.191406 216.132812 130.820312 215.878906 131.429688 215.578125 C 132.039062 215.273438 132.621094 214.925781 133.175781 214.535156 C 133.730469 214.140625 134.253906 213.707031 134.738281 213.234375 C 135.226562 212.757812 135.675781 212.25 136.082031 211.707031 C 136.492188 211.160156 136.855469 210.589844 137.171875 209.988281 C 137.492188 209.386719 137.761719 208.765625 137.984375 208.121094 L 160.066406 145.328125 Z M 178.378906 92.792969 " fill-opacity="1" fill-rule="nonzero"/></g><path fill="#ffffff" d="M 217.808594 216.9375 C 218.164062 216.9375 218.519531 216.917969 218.871094 216.875 C 219.226562 216.832031 219.574219 216.765625 219.917969 216.679688 C 220.265625 216.597656 220.605469 216.492188 220.9375 216.367188 C 221.269531 216.242188 221.59375 216.097656 221.910156 215.933594 C 222.226562 215.769531 222.53125 215.585938 222.824219 215.386719 C 223.117188 215.1875 223.398438 214.972656 223.667969 214.738281 C 223.933594 214.503906 224.1875 214.253906 224.425781 213.992188 C 224.664062 213.726562 224.886719 213.449219 225.09375 213.160156 C 225.296875 212.871094 225.484375 212.570312 225.65625 212.253906 C 225.824219 211.941406 225.972656 211.621094 226.105469 211.292969 C 226.238281 210.960938 226.347656 210.625 226.4375 210.28125 C 226.53125 209.9375 226.601562 209.589844 226.648438 209.234375 C 226.699219 208.882812 226.726562 208.53125 226.734375 208.175781 C 226.742188 207.820312 226.726562 207.464844 226.691406 207.109375 C 226.65625 206.757812 226.601562 206.40625 226.523438 206.058594 C 226.449219 205.710938 226.351562 205.371094 226.234375 205.035156 L 194.394531 114.324219 C 194.1875 113.78125 193.84375 113.347656 193.363281 113.015625 C 192.886719 112.6875 192.355469 112.523438 191.777344 112.523438 C 191.195312 112.523438 190.664062 112.6875 190.1875 113.015625 C 189.710938 113.347656 189.367188 113.78125 189.160156 114.324219 L 176.417969 150.457031 L 171.839844 163.539062 C 170.976562 166 170.542969 168.53125 170.542969 171.140625 C 170.542969 173.746094 170.976562 176.28125 171.839844 178.738281 L 182.148438 208.148438 C 182.371094 208.789062 182.640625 209.410156 182.960938 210.011719 C 183.28125 210.609375 183.644531 211.179688 184.054688 211.722656 C 184.460938 212.265625 184.910156 212.773438 185.398438 213.246094 C 185.886719 213.722656 186.40625 214.152344 186.960938 214.546875 C 187.515625 214.9375 188.097656 215.285156 188.707031 215.585938 C 189.316406 215.886719 189.945312 216.136719 190.59375 216.339844 C 191.242188 216.542969 191.902344 216.695312 192.574219 216.796875 C 193.246094 216.894531 193.921875 216.945312 194.601562 216.9375 Z M 217.808594 216.9375 " fill-opacity="1" fill-rule="nonzero"/><g clip-path="url(#5c15a82bf3)"><path fill="#ffffff" d="M 258.808594 169.792969 C 271.921875 169.792969 282.550781 180.425781 282.550781 193.535156 C 282.550781 206.648438 271.921875 217.277344 258.808594 217.277344 C 245.695312 217.277344 235.066406 206.648438 235.066406 193.535156 C 235.066406 180.425781 245.695312 169.792969 258.808594 169.792969 Z M 258.808594 169.792969 " fill-opacity="1" fill-rule="evenodd"/></g><g fill="#ffffff" fill-opacity="1"><g transform="translate(23.103869, 270.297262)"><g><path d="M 24.625 0 L 22.78125 -5.578125 L 10.875 -5.578125 L 9.03125 0 L 0.421875 0 L 11.953125 -33.28125 L 21.796875 -33.28125 L 33.28125 0 Z M 12.90625 -11.71875 L 20.75 -11.71875 L 16.828125 -23.53125 Z M 12.90625 -11.71875 "/></g></g></g><g fill="#ffffff" fill-opacity="1"><g transform="translate(56.809146, 270.297262)"><g><path d="M 5.109375 -3.453125 C 2.773438 -5.972656 1.609375 -9.203125 1.609375 -13.140625 C 1.609375 -17.078125 2.773438 -20.3125 5.109375 -22.84375 C 7.441406 -25.382812 10.285156 -26.65625 13.640625 -26.65625 C 16.992188 -26.65625 19.566406 -25.410156 21.359375 -22.921875 L 21.359375 -26.375 L 29.453125 -26.375 L 29.453125 -0.140625 C 29.453125 3.546875 28.441406 6.617188 26.421875 9.078125 C 25.410156 10.335938 24.03125 11.3125 22.28125 12 C 20.53125 12.695312 18.507812 13.046875 16.21875 13.046875 C 12.175781 13.046875 8.972656 12.222656 6.609375 10.578125 C 4.253906 8.941406 2.914062 6.441406 2.59375 3.078125 L 10.546875 3.078125 C 11.296875 5.054688 13.1875 6.046875 16.21875 6.046875 C 17.695312 6.046875 18.921875 5.550781 19.890625 4.5625 C 20.867188 3.570312 21.359375 2.003906 21.359375 -0.140625 L 21.359375 -3.828125 C 19.410156 -1.054688 16.796875 0.328125 13.515625 0.328125 C 10.242188 0.328125 7.441406 -0.929688 5.109375 -3.453125 Z M 19.609375 -8.359375 C 20.773438 -9.492188 21.359375 -11.101562 21.359375 -13.1875 C 21.359375 -15.269531 20.773438 -16.867188 19.609375 -17.984375 C 18.441406 -19.097656 17.101562 -19.65625 15.59375 -19.65625 C 14.082031 -19.65625 12.742188 -19.085938 11.578125 -17.953125 C 10.410156 -16.828125 9.828125 -15.222656 9.828125 -13.140625 C 9.828125 -11.054688 10.410156 -9.457031 11.578125 -8.34375 C 12.742188 -7.226562 14.082031 -6.671875 15.59375 -6.671875 C 17.101562 -6.671875 18.441406 -7.234375 19.609375 -8.359375 Z M 19.609375 -8.359375 "/></g></g></g><g fill="#ffffff" fill-opacity="1"><g transform="translate(89.805342, 270.297262)"><g><path d="M 14.75 0.328125 C 10.90625 0.328125 7.753906 -0.90625 5.296875 -3.375 C 2.835938 -5.851562 1.609375 -9.140625 1.609375 -13.234375 C 1.609375 -17.328125 2.828125 -20.585938 5.265625 -23.015625 C 7.710938 -25.441406 10.875 -26.65625 14.75 -26.65625 C 18.625 -26.65625 21.835938 -25.457031 24.390625 -23.0625 C 26.941406 -20.664062 28.21875 -17.34375 28.21875 -13.09375 C 28.21875 -12.175781 28.15625 -11.328125 28.03125 -10.546875 L 9.875 -10.546875 C 10.03125 -9.378906 10.550781 -8.421875 11.4375 -7.671875 C 12.320312 -6.929688 13.273438 -6.5625 14.296875 -6.5625 C 15.316406 -6.5625 16.078125 -6.664062 16.578125 -6.875 C 17.085938 -7.082031 17.460938 -7.285156 17.703125 -7.484375 C 17.941406 -7.691406 18.25 -8.03125 18.625 -8.5 L 27.359375 -8.5 C 26.609375 -5.851562 25.097656 -3.71875 22.828125 -2.09375 C 20.554688 -0.476562 17.863281 0.328125 14.75 0.328125 Z M 19.796875 -15.59375 C 19.671875 -16.820312 19.132812 -17.820312 18.1875 -18.59375 C 17.25 -19.363281 16.132812 -19.75 14.84375 -19.75 C 13.550781 -19.75 12.460938 -19.363281 11.578125 -18.59375 C 10.691406 -17.820312 10.140625 -16.820312 9.921875 -15.59375 Z M 19.796875 -15.59375 "/></g></g></g><g fill="#ffffff" fill-opacity="1"><g transform="translate(119.681553, 270.297262)"><g><path d="M 11.625 -26.375 L 11.625 -22.5 C 13.289062 -25.269531 15.953125 -26.65625 19.609375 -26.65625 C 22.640625 -26.65625 25.09375 -25.644531 26.96875 -23.625 C 28.84375 -21.613281 29.78125 -18.875 29.78125 -15.40625 L 29.78125 0 L 21.734375 0 L 21.734375 -14.328125 C 21.734375 -16.023438 21.285156 -17.335938 20.390625 -18.265625 C 19.492188 -19.191406 18.257812 -19.65625 16.6875 -19.65625 C 15.113281 -19.65625 13.875 -19.191406 12.96875 -18.265625 C 12.070312 -17.335938 11.625 -16.023438 11.625 -14.328125 L 11.625 0 L 3.546875 0 L 3.546875 -26.375 Z M 11.625 -26.375 "/></g></g></g><g fill="#ffffff" fill-opacity="1"><g transform="translate(152.772292, 270.297262)"><g><path d="M 19.609375 -8.359375 C 20.773438 -9.492188 21.359375 -11.101562 21.359375 -13.1875 C 21.359375 -15.269531 20.773438 -16.867188 19.609375 -17.984375 C 18.441406 -19.097656 17.101562 -19.65625 15.59375 -19.65625 C 14.082031 -19.65625 12.742188 -19.085938 11.578125 -17.953125 C 10.410156 -16.828125 9.828125 -15.222656 9.828125 -13.140625 C 9.828125 -11.054688 10.410156 -9.457031 11.578125 -8.34375 C 12.742188 -7.226562 14.082031 -6.671875 15.59375 -6.671875 C 17.101562 -6.671875 18.441406 -7.234375 19.609375 -8.359375 Z M 5.109375 -3.453125 C 2.773438 -5.972656 1.609375 -9.203125 1.609375 -13.140625 C 1.609375 -17.078125 2.773438 -20.3125 5.109375 -22.84375 C 7.441406 -25.382812 10.285156 -26.65625 13.640625 -26.65625 C 16.992188 -26.65625 19.566406 -25.410156 21.359375 -22.921875 L 21.359375 -34.96875 L 29.453125 -34.96875 L 29.453125 0 L 21.359375 0 L 21.359375 -3.828125 C 19.410156 -1.054688 16.796875 0.328125 13.515625 0.328125 C 10.242188 0.328125 7.441406 -0.929688 5.109375 -3.453125 Z M 5.109375 -3.453125 "/></g></g></g><g fill="#ffffff" fill-opacity="1"><g transform="translate(185.768489, 270.297262)"><g><path d="M 19.609375 -8.359375 C 20.773438 -9.492188 21.359375 -11.101562 21.359375 -13.1875 C 21.359375 -15.269531 20.773438 -16.867188 19.609375 -17.984375 C 18.441406 -19.097656 17.101562 -19.65625 15.59375 -19.65625 C 14.082031 -19.65625 12.742188 -19.085938 11.578125 -17.953125 C 10.410156 -16.828125 9.828125 -15.222656 9.828125 -13.140625 C 9.828125 -11.054688 10.410156 -9.457031 11.578125 -8.34375 C 12.742188 -7.226562 14.082031 -6.671875 15.59375 -6.671875 C 17.101562 -6.671875 18.441406 -7.234375 19.609375 -8.359375 Z M 5.109375 -3.453125 C 2.773438 -5.972656 1.609375 -9.203125 1.609375 -13.140625 C 1.609375 -17.078125 2.773438 -20.3125 5.109375 -22.84375 C 7.441406 -25.382812 10.285156 -26.65625 13.640625 -26.65625 C 16.992188 -26.65625 19.566406 -25.410156 21.359375 -22.921875 L 21.359375 -26.375 L 29.453125 -26.375 L 29.453125 0 L 21.359375 0 L 21.359375 -3.828125 C 19.410156 -1.054688 16.796875 0.328125 13.515625 0.328125 C 10.242188 0.328125 7.441406 -0.929688 5.109375 -3.453125 Z M 5.109375 -3.453125 "/></g></g></g><g fill="#ffffff" fill-opacity="1"><g transform="translate(218.764685, 270.297262)"><g><path d="M 28.828125 -23.015625 C 28.828125 -20.773438 28.023438 -18.617188 26.421875 -16.546875 C 25.566406 -15.472656 24.296875 -14.597656 22.609375 -13.921875 C 20.929688 -13.242188 18.941406 -12.90625 16.640625 -12.90625 L 11.625 -12.90625 L 11.625 0 L 3.546875 0 L 3.546875 -33.1875 L 16.640625 -33.1875 C 20.484375 -33.1875 23.472656 -32.191406 25.609375 -30.203125 C 27.753906 -28.210938 28.828125 -25.816406 28.828125 -23.015625 Z M 11.625 -19.046875 L 16.640625 -19.046875 C 17.867188 -19.046875 18.835938 -19.40625 19.546875 -20.125 C 20.253906 -20.851562 20.609375 -21.804688 20.609375 -22.984375 C 20.609375 -24.171875 20.242188 -25.140625 19.515625 -25.890625 C 18.796875 -26.648438 17.835938 -27.03125 16.640625 -27.03125 L 11.625 -27.03125 Z M 11.625 -19.046875 "/></g></g></g><g fill="#ffffff" fill-opacity="1"><g transform="translate(248.92453, 270.297262)"><g><path d="M 19.375 -8.265625 C 20.445312 -9.398438 20.984375 -11.039062 20.984375 -13.1875 C 20.984375 -15.332031 20.429688 -16.960938 19.328125 -18.078125 C 18.222656 -19.191406 16.914062 -19.75 15.40625 -19.75 C 13.894531 -19.75 12.59375 -19.191406 11.5 -18.078125 C 10.414062 -16.960938 9.875 -15.332031 9.875 -13.1875 C 9.875 -11.039062 10.429688 -9.398438 11.546875 -8.265625 C 12.671875 -7.128906 13.988281 -6.5625 15.5 -6.5625 C 17.007812 -6.5625 18.300781 -7.128906 19.375 -8.265625 Z M 5.640625 -3.40625 C 2.984375 -5.894531 1.65625 -9.171875 1.65625 -13.234375 C 1.65625 -17.296875 2.976562 -20.546875 5.625 -22.984375 C 8.269531 -25.429688 11.546875 -26.65625 15.453125 -26.65625 C 19.359375 -26.65625 22.625 -25.429688 25.25 -22.984375 C 27.882812 -20.546875 29.203125 -17.296875 29.203125 -13.234375 C 29.203125 -9.171875 27.894531 -5.894531 25.28125 -3.40625 C 22.664062 -0.914062 19.40625 0.328125 15.5 0.328125 C 11.59375 0.328125 8.304688 -0.914062 5.640625 -3.40625 Z M 5.640625 -3.40625 "/></g></g></g><g fill="#ffffff" fill-opacity="1"><g transform="translate(279.793456, 270.297262)"><g><path d="M 11.625 -26.375 L 11.625 -22.5 C 13.289062 -25.269531 15.953125 -26.65625 19.609375 -26.65625 C 22.640625 -26.65625 25.09375 -25.644531 26.96875 -23.625 C 28.84375 -21.613281 29.78125 -18.875 29.78125 -15.40625 L 29.78125 0 L 21.734375 0 L 21.734375 -14.328125 C 21.734375 -16.023438 21.285156 -17.335938 20.390625 -18.265625 C 19.492188 -19.191406 18.257812 -19.65625 16.6875 -19.65625 C 15.113281 -19.65625 13.875 -19.191406 12.96875 -18.265625 C 12.070312 -17.335938 11.625 -16.023438 11.625 -14.328125 L 11.625 0 L 3.546875 0 L 3.546875 -26.375 Z M 11.625 -26.375 "/></g></g></g><g fill="#ffffff" fill-opacity="1"><g transform="translate(312.884195, 270.297262)"><g><path d="M 14.75 -6.859375 L 17.625 -6.859375 L 17.625 0 L 13.515625 0 C 10.554688 0 8.265625 -0.648438 6.640625 -1.953125 C 5.015625 -3.265625 4.203125 -5.515625 4.203125 -8.703125 L 4.203125 -19.65625 L 1.75 -19.65625 L 1.75 -26.375 L 4.203125 -26.375 L 4.203125 -32.796875 L 12.28125 -32.796875 L 12.28125 -26.375 L 17.578125 -26.375 L 17.578125 -19.65625 L 12.28125 -19.65625 L 12.28125 -8.703125 C 12.28125 -7.472656 13.101562 -6.859375 14.75 -6.859375 Z M 14.75 -6.859375 "/></g></g></g><g fill="#ffffff" fill-opacity="1"><g transform="translate(332.502263, 270.297262)"><g><path d="M 19.375 -8.265625 C 20.445312 -9.398438 20.984375 -11.039062 20.984375 -13.1875 C 20.984375 -15.332031 20.429688 -16.960938 19.328125 -18.078125 C 18.222656 -19.191406 16.914062 -19.75 15.40625 -19.75 C 13.894531 -19.75 12.59375 -19.191406 11.5 -18.078125 C 10.414062 -16.960938 9.875 -15.332031 9.875 -13.1875 C 9.875 -11.039062 10.429688 -9.398438 11.546875 -8.265625 C 12.671875 -7.128906 13.988281 -6.5625 15.5 -6.5625 C 17.007812 -6.5625 18.300781 -7.128906 19.375 -8.265625 Z M 5.640625 -3.40625 C 2.984375 -5.894531 1.65625 -9.171875 1.65625 -13.234375 C 1.65625 -17.296875 2.976562 -20.546875 5.625 -22.984375 C 8.269531 -25.429688 11.546875 -26.65625 15.453125 -26.65625 C 19.359375 -26.65625 22.625 -25.429688 25.25 -22.984375 C 27.882812 -20.546875 29.203125 -17.296875 29.203125 -13.234375 C 29.203125 -9.171875 27.894531 -5.894531 25.28125 -3.40625 C 22.664062 -0.914062 19.40625 0.328125 15.5 0.328125 C 11.59375 0.328125 8.304688 -0.914062 5.640625 -3.40625 Z M 5.640625 -3.40625 "/></g></g></g></svg>