<svg xmlns="http://www.w3.org/2000/svg" xmlns:xlink="http://www.w3.org/1999/xlink" width="500" zoomAndPan="magnify" viewBox="0 0 375 374.999991" height="500" preserveAspectRatio="xMidYMid meet" version="1.0"><defs><g/><clipPath id="043de16b50"><path d="M 83.085938 62 L 173 62 L 173 204 L 83.085938 204 Z M 83.085938 62 " clip-rule="nonzero"/></clipPath><clipPath id="4fbb7cd1d9"><path d="M 163 95 L 222.585938 95 L 222.585938 204 L 163 204 Z M 163 95 " clip-rule="nonzero"/></clipPath><clipPath id="23094fd47d"><path d="M 230.980469 154.617188 L 280.480469 154.617188 L 280.480469 204 L 230.980469 204 Z M 230.980469 154.617188 " clip-rule="nonzero"/></clipPath></defs><g clip-path="url(#043de16b50)"><path fill="#ffffff" d="M 172.046875 74.558594 C 172.167969 74.214844 172.265625 73.859375 172.347656 73.5 C 172.425781 73.140625 172.484375 72.777344 172.523438 72.414062 C 172.558594 72.046875 172.574219 71.679688 172.566406 71.3125 C 172.558594 70.941406 172.53125 70.578125 172.480469 70.210938 C 172.429688 69.847656 172.359375 69.488281 172.265625 69.132812 C 172.171875 68.773438 172.058594 68.425781 171.921875 68.082031 C 171.789062 67.742188 171.632812 67.40625 171.460938 67.082031 C 171.285156 66.757812 171.09375 66.445312 170.882812 66.144531 C 170.671875 65.84375 170.441406 65.554688 170.195312 65.28125 C 169.953125 65.007812 169.691406 64.75 169.414062 64.503906 C 169.136719 64.261719 168.847656 64.035156 168.546875 63.828125 C 168.242188 63.617188 167.929688 63.425781 167.601562 63.253906 C 167.277344 63.085938 166.941406 62.933594 166.597656 62.800781 C 166.257812 62.667969 165.90625 62.558594 165.550781 62.46875 C 165.191406 62.375 164.832031 62.308594 164.464844 62.261719 C 164.101562 62.210938 163.734375 62.1875 163.367188 62.183594 L 145.167969 62.183594 C 144.03125 62.183594 142.898438 62.269531 141.777344 62.445312 C 140.652344 62.621094 139.550781 62.878906 138.464844 63.226562 C 137.382812 63.570312 136.332031 63.996094 135.3125 64.503906 C 134.296875 65.011719 133.324219 65.59375 132.394531 66.25 C 131.46875 66.910156 130.597656 67.632812 129.78125 68.425781 C 128.964844 69.21875 128.214844 70.066406 127.53125 70.976562 C 126.847656 71.882812 126.234375 72.839844 125.699219 73.839844 C 125.164062 74.84375 124.707031 75.882812 124.328125 76.953125 L 84.175781 191.265625 C 84.050781 191.617188 83.953125 191.972656 83.871094 192.332031 C 83.792969 192.695312 83.734375 193.0625 83.699219 193.429688 C 83.660156 193.796875 83.648438 194.167969 83.65625 194.539062 C 83.664062 194.90625 83.691406 195.277344 83.742188 195.640625 C 83.796875 196.007812 83.867188 196.371094 83.964844 196.730469 C 84.058594 197.085938 84.175781 197.4375 84.3125 197.78125 C 84.449219 198.125 84.605469 198.460938 84.78125 198.785156 C 84.960938 199.113281 85.15625 199.425781 85.371094 199.726562 C 85.585938 200.027344 85.816406 200.316406 86.0625 200.589844 C 86.3125 200.867188 86.578125 201.125 86.855469 201.367188 C 87.136719 201.609375 87.429688 201.835938 87.734375 202.042969 C 88.042969 202.25 88.359375 202.4375 88.691406 202.609375 C 89.019531 202.777344 89.355469 202.929688 89.703125 203.058594 C 90.050781 203.1875 90.402344 203.296875 90.765625 203.382812 C 91.125 203.46875 91.488281 203.535156 91.855469 203.578125 C 92.222656 203.625 92.589844 203.644531 92.960938 203.644531 L 117.09375 203.644531 C 117.800781 203.648438 118.503906 203.601562 119.203125 203.496094 C 119.902344 203.390625 120.589844 203.230469 121.261719 203.019531 C 121.9375 202.808594 122.59375 202.542969 123.226562 202.230469 C 123.859375 201.914062 124.464844 201.554688 125.042969 201.144531 C 125.621094 200.738281 126.160156 200.285156 126.667969 199.792969 C 127.175781 199.300781 127.640625 198.769531 128.066406 198.203125 C 128.488281 197.636719 128.867188 197.042969 129.199219 196.417969 C 129.53125 195.792969 129.8125 195.144531 130.042969 194.476562 L 153.003906 129.1875 Z M 172.046875 74.558594 " fill-opacity="1" fill-rule="nonzero"/></g><g clip-path="url(#4fbb7cd1d9)"><path fill="#ffffff" d="M 213.042969 203.644531 C 213.410156 203.644531 213.78125 203.621094 214.148438 203.578125 C 214.515625 203.53125 214.878906 203.464844 215.238281 203.378906 C 215.59375 203.289062 215.949219 203.179688 216.292969 203.050781 C 216.640625 202.921875 216.976562 202.769531 217.304688 202.601562 C 217.632812 202.429688 217.949219 202.242188 218.257812 202.03125 C 218.5625 201.824219 218.855469 201.597656 219.132812 201.355469 C 219.410156 201.113281 219.675781 200.855469 219.921875 200.582031 C 220.171875 200.304688 220.402344 200.019531 220.617188 199.714844 C 220.828125 199.414062 221.023438 199.101562 221.199219 198.777344 C 221.375 198.449219 221.53125 198.117188 221.667969 197.773438 C 221.804688 197.429688 221.921875 197.078125 222.015625 196.722656 C 222.109375 196.363281 222.183594 196 222.234375 195.636719 C 222.285156 195.269531 222.316406 194.902344 222.324219 194.53125 C 222.332031 194.164062 222.316406 193.792969 222.28125 193.425781 C 222.242188 193.058594 222.183594 192.691406 222.105469 192.332031 C 222.023438 191.972656 221.925781 191.617188 221.800781 191.265625 L 188.695312 96.949219 C 188.480469 96.386719 188.125 95.929688 187.625 95.589844 C 187.128906 95.246094 186.578125 95.074219 185.972656 95.074219 C 185.371094 95.074219 184.820312 95.246094 184.320312 95.589844 C 183.824219 95.929688 183.46875 96.386719 183.253906 96.949219 L 170.003906 134.519531 L 165.246094 148.121094 C 164.347656 150.679688 163.898438 153.3125 163.898438 156.023438 C 163.898438 158.734375 164.347656 161.371094 165.246094 163.925781 L 175.960938 194.503906 C 176.195312 195.171875 176.476562 195.816406 176.808594 196.441406 C 177.140625 197.0625 177.519531 197.660156 177.945312 198.222656 C 178.367188 198.789062 178.835938 199.316406 179.34375 199.808594 C 179.847656 200.300781 180.390625 200.75 180.96875 201.15625 C 181.546875 201.5625 182.152344 201.921875 182.785156 202.238281 C 183.417969 202.550781 184.070312 202.8125 184.746094 203.023438 C 185.417969 203.234375 186.105469 203.390625 186.804688 203.496094 C 187.503906 203.601562 188.207031 203.652344 188.910156 203.644531 Z M 213.042969 203.644531 " fill-opacity="1" fill-rule="nonzero"/></g><g clip-path="url(#23094fd47d)"><path fill="#ffffff" d="M 255.667969 154.617188 C 269.300781 154.617188 280.351562 165.667969 280.351562 179.300781 C 280.351562 192.9375 269.300781 203.988281 255.667969 203.988281 C 242.035156 203.988281 230.980469 192.9375 230.980469 179.300781 C 230.980469 165.667969 242.035156 154.617188 255.667969 154.617188 Z M 255.667969 154.617188 " fill-opacity="1" fill-rule="evenodd"/></g><g fill="#ffffff" fill-opacity="1"><g transform="translate(10.594211, 259.114044)"><g><path d="M 25.609375 0 L 23.6875 -5.796875 L 11.3125 -5.796875 L 9.390625 0 L 0.4375 0 L 12.4375 -34.609375 L 22.65625 -34.609375 L 34.609375 0 Z M 13.421875 -12.1875 L 21.578125 -12.1875 L 17.5 -24.484375 Z M 13.421875 -12.1875 "/></g></g></g><g fill="#ffffff" fill-opacity="1"><g transform="translate(45.639112, 259.114044)"><g><path d="M 5.3125 -3.578125 C 2.882812 -6.203125 1.671875 -9.5625 1.671875 -13.65625 C 1.671875 -17.757812 2.882812 -21.128906 5.3125 -23.765625 C 7.738281 -26.398438 10.695312 -27.71875 14.1875 -27.71875 C 17.675781 -27.71875 20.351562 -26.425781 22.21875 -23.84375 L 22.21875 -27.421875 L 30.625 -27.421875 L 30.625 -0.140625 C 30.625 3.691406 29.578125 6.882812 27.484375 9.4375 C 26.429688 10.75 24.992188 11.765625 23.171875 12.484375 C 21.359375 13.203125 19.253906 13.5625 16.859375 13.5625 C 12.660156 13.5625 9.332031 12.707031 6.875 11 C 4.414062 9.300781 3.023438 6.695312 2.703125 3.1875 L 10.96875 3.1875 C 11.75 5.257812 13.710938 6.296875 16.859375 6.296875 C 18.398438 6.296875 19.675781 5.773438 20.6875 4.734375 C 21.707031 3.703125 22.21875 2.078125 22.21875 -0.140625 L 22.21875 -3.984375 C 20.1875 -1.097656 17.46875 0.34375 14.0625 0.34375 C 10.65625 0.34375 7.738281 -0.960938 5.3125 -3.578125 Z M 20.390625 -8.703125 C 21.609375 -9.878906 22.21875 -11.546875 22.21875 -13.703125 C 22.21875 -15.867188 21.609375 -17.535156 20.390625 -18.703125 C 19.179688 -19.867188 17.789062 -20.453125 16.21875 -20.453125 C 14.644531 -20.453125 13.25 -19.859375 12.03125 -18.671875 C 10.820312 -17.492188 10.21875 -15.820312 10.21875 -13.65625 C 10.21875 -11.5 10.820312 -9.835938 12.03125 -8.671875 C 13.25 -7.515625 14.644531 -6.9375 16.21875 -6.9375 C 17.789062 -6.9375 19.179688 -7.523438 20.390625 -8.703125 Z M 20.390625 -8.703125 "/></g></g></g><g fill="#ffffff" fill-opacity="1"><g transform="translate(79.94675, 259.114044)"><g><path d="M 15.34375 0.34375 C 11.34375 0.34375 8.0625 -0.941406 5.5 -3.515625 C 2.945312 -6.085938 1.671875 -9.503906 1.671875 -13.765625 C 1.671875 -18.023438 2.941406 -21.414062 5.484375 -23.9375 C 8.023438 -26.457031 11.3125 -27.71875 15.34375 -27.71875 C 19.375 -27.71875 22.710938 -26.472656 25.359375 -23.984375 C 28.015625 -21.492188 29.34375 -18.035156 29.34375 -13.609375 C 29.34375 -12.660156 29.28125 -11.78125 29.15625 -10.96875 L 10.28125 -10.96875 C 10.4375 -9.75 10.972656 -8.753906 11.890625 -7.984375 C 12.804688 -7.210938 13.796875 -6.828125 14.859375 -6.828125 C 15.929688 -6.828125 16.726562 -6.929688 17.25 -7.140625 C 17.78125 -7.359375 18.164062 -7.570312 18.40625 -7.78125 C 18.65625 -8 18.976562 -8.351562 19.375 -8.84375 L 28.46875 -8.84375 C 27.675781 -6.09375 26.097656 -3.875 23.734375 -2.1875 C 21.378906 -0.5 18.582031 0.34375 15.34375 0.34375 Z M 20.59375 -16.21875 C 20.46875 -17.5 19.910156 -18.539062 18.921875 -19.34375 C 17.941406 -20.144531 16.78125 -20.546875 15.4375 -20.546875 C 14.09375 -20.546875 12.960938 -20.144531 12.046875 -19.34375 C 11.128906 -18.539062 10.554688 -17.5 10.328125 -16.21875 Z M 20.59375 -16.21875 "/></g></g></g><g fill="#ffffff" fill-opacity="1"><g transform="translate(111.010399, 259.114044)"><g><path d="M 12.09375 -27.421875 L 12.09375 -23.390625 C 13.832031 -26.273438 16.601562 -27.71875 20.40625 -27.71875 C 23.550781 -27.71875 26.097656 -26.671875 28.046875 -24.578125 C 29.992188 -22.484375 30.96875 -19.632812 30.96875 -16.03125 L 30.96875 0 L 22.609375 0 L 22.609375 -14.890625 C 22.609375 -16.660156 22.140625 -18.03125 21.203125 -19 C 20.273438 -19.96875 18.988281 -20.453125 17.34375 -20.453125 C 15.707031 -20.453125 14.421875 -19.96875 13.484375 -19 C 12.554688 -18.03125 12.09375 -16.660156 12.09375 -14.890625 L 12.09375 0 L 3.6875 0 L 3.6875 -27.421875 Z M 12.09375 -27.421875 "/></g></g></g><g fill="#ffffff" fill-opacity="1"><g transform="translate(145.416338, 259.114044)"><g><path d="M 20.390625 -8.703125 C 21.609375 -9.878906 22.21875 -11.546875 22.21875 -13.703125 C 22.21875 -15.867188 21.609375 -17.535156 20.390625 -18.703125 C 19.179688 -19.867188 17.789062 -20.453125 16.21875 -20.453125 C 14.644531 -20.453125 13.25 -19.859375 12.03125 -18.671875 C 10.820312 -17.492188 10.21875 -15.820312 10.21875 -13.65625 C 10.21875 -11.5 10.820312 -9.835938 12.03125 -8.671875 C 13.25 -7.515625 14.644531 -6.9375 16.21875 -6.9375 C 17.789062 -6.9375 19.179688 -7.523438 20.390625 -8.703125 Z M 5.3125 -3.578125 C 2.882812 -6.203125 1.671875 -9.5625 1.671875 -13.65625 C 1.671875 -17.757812 2.882812 -21.128906 5.3125 -23.765625 C 7.738281 -26.398438 10.695312 -27.71875 14.1875 -27.71875 C 17.675781 -27.71875 20.351562 -26.425781 22.21875 -23.84375 L 22.21875 -36.375 L 30.625 -36.375 L 30.625 0 L 22.21875 0 L 22.21875 -3.984375 C 20.1875 -1.097656 17.46875 0.34375 14.0625 0.34375 C 10.65625 0.34375 7.738281 -0.960938 5.3125 -3.578125 Z M 5.3125 -3.578125 "/></g></g></g><g fill="#ffffff" fill-opacity="1"><g transform="translate(179.723976, 259.114044)"><g><path d="M 20.390625 -8.703125 C 21.609375 -9.878906 22.21875 -11.546875 22.21875 -13.703125 C 22.21875 -15.867188 21.609375 -17.535156 20.390625 -18.703125 C 19.179688 -19.867188 17.789062 -20.453125 16.21875 -20.453125 C 14.644531 -20.453125 13.25 -19.859375 12.03125 -18.671875 C 10.820312 -17.492188 10.21875 -15.820312 10.21875 -13.65625 C 10.21875 -11.5 10.820312 -9.835938 12.03125 -8.671875 C 13.25 -7.515625 14.644531 -6.9375 16.21875 -6.9375 C 17.789062 -6.9375 19.179688 -7.523438 20.390625 -8.703125 Z M 5.3125 -3.578125 C 2.882812 -6.203125 1.671875 -9.5625 1.671875 -13.65625 C 1.671875 -17.757812 2.882812 -21.128906 5.3125 -23.765625 C 7.738281 -26.398438 10.695312 -27.71875 14.1875 -27.71875 C 17.675781 -27.71875 20.351562 -26.425781 22.21875 -23.84375 L 22.21875 -27.421875 L 30.625 -27.421875 L 30.625 0 L 22.21875 0 L 22.21875 -3.984375 C 20.1875 -1.097656 17.46875 0.34375 14.0625 0.34375 C 10.65625 0.34375 7.738281 -0.960938 5.3125 -3.578125 Z M 5.3125 -3.578125 "/></g></g></g><g fill="#ffffff" fill-opacity="1"><g transform="translate(214.031614, 259.114044)"><g><path d="M 29.984375 -23.9375 C 29.984375 -21.613281 29.148438 -19.367188 27.484375 -17.203125 C 26.597656 -16.085938 25.273438 -15.175781 23.515625 -14.46875 C 21.765625 -13.769531 19.691406 -13.421875 17.296875 -13.421875 L 12.09375 -13.421875 L 12.09375 0 L 3.6875 0 L 3.6875 -34.5 L 17.296875 -34.5 C 21.296875 -34.5 24.410156 -33.46875 26.640625 -31.40625 C 28.867188 -29.34375 29.984375 -26.851562 29.984375 -23.9375 Z M 12.09375 -19.8125 L 17.296875 -19.8125 C 18.578125 -19.8125 19.585938 -20.1875 20.328125 -20.9375 C 21.066406 -21.695312 21.4375 -22.691406 21.4375 -23.921875 C 21.4375 -25.148438 21.054688 -26.15625 20.296875 -26.9375 C 19.546875 -27.726562 18.546875 -28.125 17.296875 -28.125 L 12.09375 -28.125 Z M 12.09375 -19.8125 "/></g></g></g><g fill="#ffffff" fill-opacity="1"><g transform="translate(245.39017, 259.114044)"><g><path d="M 20.15625 -8.59375 C 21.269531 -9.78125 21.828125 -11.488281 21.828125 -13.71875 C 21.828125 -15.945312 21.253906 -17.640625 20.109375 -18.796875 C 18.960938 -19.960938 17.601562 -20.546875 16.03125 -20.546875 C 14.457031 -20.546875 13.101562 -19.960938 11.96875 -18.796875 C 10.84375 -17.640625 10.28125 -15.945312 10.28125 -13.71875 C 10.28125 -11.488281 10.859375 -9.78125 12.015625 -8.59375 C 13.179688 -7.414062 14.550781 -6.828125 16.125 -6.828125 C 17.695312 -6.828125 19.039062 -7.414062 20.15625 -8.59375 Z M 5.875 -3.53125 C 3.101562 -6.125 1.71875 -9.535156 1.71875 -13.765625 C 1.71875 -17.992188 3.09375 -21.375 5.84375 -23.90625 C 8.601562 -26.445312 12.015625 -27.71875 16.078125 -27.71875 C 20.140625 -27.71875 23.535156 -26.445312 26.265625 -23.90625 C 29.003906 -21.375 30.375 -17.992188 30.375 -13.765625 C 30.375 -9.535156 29.015625 -6.125 26.296875 -3.53125 C 23.578125 -0.945312 20.1875 0.34375 16.125 0.34375 C 12.0625 0.34375 8.644531 -0.945312 5.875 -3.53125 Z M 5.875 -3.53125 "/></g></g></g><g fill="#ffffff" fill-opacity="1"><g transform="translate(277.485989, 259.114044)"><g><path d="M 12.09375 -27.421875 L 12.09375 -23.390625 C 13.832031 -26.273438 16.601562 -27.71875 20.40625 -27.71875 C 23.550781 -27.71875 26.097656 -26.671875 28.046875 -24.578125 C 29.992188 -22.484375 30.96875 -19.632812 30.96875 -16.03125 L 30.96875 0 L 22.609375 0 L 22.609375 -14.890625 C 22.609375 -16.660156 22.140625 -18.03125 21.203125 -19 C 20.273438 -19.96875 18.988281 -20.453125 17.34375 -20.453125 C 15.707031 -20.453125 14.421875 -19.96875 13.484375 -19 C 12.554688 -18.03125 12.09375 -16.660156 12.09375 -14.890625 L 12.09375 0 L 3.6875 0 L 3.6875 -27.421875 Z M 12.09375 -27.421875 "/></g></g></g><g fill="#ffffff" fill-opacity="1"><g transform="translate(311.891928, 259.114044)"><g><path d="M 15.34375 -7.125 L 18.328125 -7.125 L 18.328125 0 L 14.0625 0 C 10.976562 0 8.59375 -0.675781 6.90625 -2.03125 C 5.21875 -3.394531 4.375 -5.734375 4.375 -9.046875 L 4.375 -20.453125 L 1.8125 -20.453125 L 1.8125 -27.421875 L 4.375 -27.421875 L 4.375 -34.109375 L 12.78125 -34.109375 L 12.78125 -27.421875 L 18.28125 -27.421875 L 18.28125 -20.453125 L 12.78125 -20.453125 L 12.78125 -9.046875 C 12.78125 -7.765625 13.632812 -7.125 15.34375 -7.125 Z M 15.34375 -7.125 "/></g></g></g><g fill="#ffffff" fill-opacity="1"><g transform="translate(332.289721, 259.114044)"><g><path d="M 20.15625 -8.59375 C 21.269531 -9.78125 21.828125 -11.488281 21.828125 -13.71875 C 21.828125 -15.945312 21.253906 -17.640625 20.109375 -18.796875 C 18.960938 -19.960938 17.601562 -20.546875 16.03125 -20.546875 C 14.457031 -20.546875 13.101562 -19.960938 11.96875 -18.796875 C 10.84375 -17.640625 10.28125 -15.945312 10.28125 -13.71875 C 10.28125 -11.488281 10.859375 -9.78125 12.015625 -8.59375 C 13.179688 -7.414062 14.550781 -6.828125 16.125 -6.828125 C 17.695312 -6.828125 19.039062 -7.414062 20.15625 -8.59375 Z M 5.875 -3.53125 C 3.101562 -6.125 1.71875 -9.535156 1.71875 -13.765625 C 1.71875 -17.992188 3.09375 -21.375 5.84375 -23.90625 C 8.601562 -26.445312 12.015625 -27.71875 16.078125 -27.71875 C 20.140625 -27.71875 23.535156 -26.445312 26.265625 -23.90625 C 29.003906 -21.375 30.375 -17.992188 30.375 -13.765625 C 30.375 -9.535156 29.015625 -6.125 26.296875 -3.53125 C 23.578125 -0.945312 20.1875 0.34375 16.125 0.34375 C 12.0625 0.34375 8.644531 -0.945312 5.875 -3.53125 Z M 5.875 -3.53125 "/></g></g></g><g fill="#ffffff" fill-opacity="1"><g transform="translate(44.901215, 303.701102)"><g><path d="M 8.171875 -17.171875 C 7.222656 -17.171875 6.445312 -16.925781 5.84375 -16.4375 C 5.238281 -15.945312 4.9375 -15.238281 4.9375 -14.3125 C 4.9375 -13.382812 5.289062 -12.675781 6 -12.1875 C 6.71875 -11.707031 7.582031 -11.351562 8.59375 -11.125 C 9.601562 -10.894531 10.613281 -10.632812 11.625 -10.34375 C 12.632812 -10.0625 13.492188 -9.523438 14.203125 -8.734375 C 14.921875 -7.953125 15.28125 -6.835938 15.28125 -5.390625 C 15.28125 -3.953125 14.671875 -2.660156 13.453125 -1.515625 C 12.234375 -0.367188 10.601562 0.203125 8.5625 0.203125 C 6.519531 0.203125 4.863281 -0.273438 3.59375 -1.234375 C 2.320312 -2.191406 1.6875 -3.515625 1.6875 -5.203125 L 5.109375 -5.203125 C 5.179688 -4.335938 5.5 -3.648438 6.0625 -3.140625 C 6.625 -2.640625 7.445312 -2.390625 8.53125 -2.390625 C 9.625 -2.390625 10.484375 -2.671875 11.109375 -3.234375 C 11.734375 -3.796875 12.046875 -4.457031 12.046875 -5.21875 C 12.046875 -5.988281 11.851562 -6.585938 11.46875 -7.015625 C 11.09375 -7.453125 10.597656 -7.773438 9.984375 -7.984375 C 9.378906 -8.203125 8.710938 -8.394531 7.984375 -8.5625 C 7.253906 -8.738281 6.515625 -8.9375 5.765625 -9.15625 C 5.023438 -9.382812 4.351562 -9.675781 3.75 -10.03125 C 3.144531 -10.382812 2.648438 -10.898438 2.265625 -11.578125 C 1.878906 -12.265625 1.6875 -13.109375 1.6875 -14.109375 C 1.6875 -15.804688 2.296875 -17.175781 3.515625 -18.21875 C 4.742188 -19.257812 6.335938 -19.78125 8.296875 -19.78125 C 10.253906 -19.78125 11.816406 -19.328125 12.984375 -18.421875 C 14.160156 -17.523438 14.816406 -16.226562 14.953125 -14.53125 L 11.40625 -14.53125 C 11.332031 -15.269531 11.015625 -15.894531 10.453125 -16.40625 C 9.890625 -16.914062 9.128906 -17.171875 8.171875 -17.171875 Z M 8.171875 -17.171875 "/></g></g></g><g fill="#ffffff" fill-opacity="1"><g transform="translate(61.865408, 303.701102)"><g><path d="M 12.921875 -15.484375 L 16.125 -15.484375 L 16.125 0 L 12.921875 0 L 12.921875 -2.4375 C 11.910156 -0.664062 10.265625 0.21875 7.984375 0.21875 C 6.234375 0.21875 4.789062 -0.351562 3.65625 -1.5 C 2.53125 -2.65625 1.96875 -4.269531 1.96875 -6.34375 L 1.96875 -15.484375 L 5.140625 -15.484375 L 5.140625 -6.828125 C 5.140625 -5.441406 5.484375 -4.378906 6.171875 -3.640625 C 6.867188 -2.898438 7.816406 -2.53125 9.015625 -2.53125 C 10.210938 -2.53125 11.160156 -2.898438 11.859375 -3.640625 C 12.566406 -4.378906 12.921875 -5.441406 12.921875 -6.828125 Z M 12.921875 -15.484375 "/></g></g></g><g fill="#ffffff" fill-opacity="1"><g transform="translate(80.093489, 303.701102)"><g><path d="M 12.3125 -3.9375 C 13.238281 -4.882812 13.703125 -6.15625 13.703125 -7.75 C 13.703125 -9.34375 13.238281 -10.609375 12.3125 -11.546875 C 11.382812 -12.484375 10.285156 -12.953125 9.015625 -12.953125 C 7.742188 -12.953125 6.644531 -12.492188 5.71875 -11.578125 C 4.789062 -10.660156 4.328125 -9.40625 4.328125 -7.8125 C 4.328125 -6.21875 4.789062 -4.9375 5.71875 -3.96875 C 6.644531 -3.007812 7.742188 -2.53125 9.015625 -2.53125 C 10.285156 -2.53125 11.382812 -3 12.3125 -3.9375 Z M 8.34375 0.25 C 6.28125 0.25 4.546875 -0.5 3.140625 -2 C 1.742188 -3.507812 1.046875 -5.441406 1.046875 -7.796875 C 1.046875 -10.148438 1.738281 -12.0625 3.125 -13.53125 C 4.519531 -15 6.257812 -15.734375 8.34375 -15.734375 C 9.5625 -15.734375 10.632812 -15.457031 11.5625 -14.90625 C 12.488281 -14.351562 13.203125 -13.625 13.703125 -12.71875 L 13.703125 -15.484375 L 16.9375 -15.484375 L 16.9375 0 L 13.703125 0 L 13.703125 -2.890625 C 13.179688 -1.929688 12.460938 -1.164062 11.546875 -0.59375 C 10.628906 -0.03125 9.5625 0.25 8.34375 0.25 Z M 8.34375 0.25 "/></g></g></g><g fill="#ffffff" fill-opacity="1"><g transform="translate(99.136082, 303.701102)"><g><path d="M 1.40625 -11.046875 C 1.40625 -12.347656 1.957031 -13.453125 3.0625 -14.359375 C 4.164062 -15.273438 5.613281 -15.734375 7.40625 -15.734375 C 9.207031 -15.734375 10.632812 -15.285156 11.6875 -14.390625 C 12.75 -13.503906 13.320312 -12.296875 13.40625 -10.765625 L 10.109375 -10.765625 C 10.054688 -11.523438 9.789062 -12.117188 9.3125 -12.546875 C 8.832031 -12.984375 8.160156 -13.203125 7.296875 -13.203125 C 6.441406 -13.203125 5.769531 -13.007812 5.28125 -12.625 C 4.789062 -12.238281 4.546875 -11.734375 4.546875 -11.109375 C 4.546875 -10.484375 4.851562 -9.992188 5.46875 -9.640625 C 6.09375 -9.285156 6.847656 -9.019531 7.734375 -8.84375 C 8.628906 -8.675781 9.519531 -8.46875 10.40625 -8.21875 C 11.300781 -7.976562 12.054688 -7.535156 12.671875 -6.890625 C 13.285156 -6.242188 13.59375 -5.378906 13.59375 -4.296875 C 13.59375 -2.953125 13.023438 -1.859375 11.890625 -1.015625 C 10.765625 -0.171875 9.3125 0.25 7.53125 0.25 C 5.75 0.25 4.304688 -0.175781 3.203125 -1.03125 C 2.097656 -1.894531 1.488281 -3.125 1.375 -4.71875 L 4.6875 -4.71875 C 4.75 -3.945312 5.03125 -3.347656 5.53125 -2.921875 C 6.039062 -2.492188 6.726562 -2.28125 7.59375 -2.28125 C 8.46875 -2.28125 9.160156 -2.46875 9.671875 -2.84375 C 10.191406 -3.226562 10.453125 -3.738281 10.453125 -4.375 C 10.453125 -5.019531 10.140625 -5.519531 9.515625 -5.875 C 8.898438 -6.226562 8.144531 -6.492188 7.25 -6.671875 C 6.363281 -6.847656 5.476562 -7.050781 4.59375 -7.28125 C 3.707031 -7.519531 2.953125 -7.945312 2.328125 -8.5625 C 1.710938 -9.1875 1.40625 -10.015625 1.40625 -11.046875 Z M 1.40625 -11.046875 "/></g></g></g><g fill="#ffffff" fill-opacity="1"><g transform="translate(114.134238, 303.701102)"><g/></g></g><g fill="#ffffff" fill-opacity="1"><g transform="translate(122.560152, 303.701102)"><g><path d="M 9.609375 -12.859375 L 5.84375 -12.859375 L 5.84375 -4.296875 C 5.84375 -3.710938 5.976562 -3.296875 6.25 -3.046875 C 6.519531 -2.796875 6.984375 -2.671875 7.640625 -2.671875 L 9.609375 -2.671875 L 9.609375 0 L 7.078125 0 C 4.097656 0 2.609375 -1.429688 2.609375 -4.296875 L 2.609375 -12.859375 L 0.78125 -12.859375 L 0.78125 -15.484375 L 2.609375 -15.484375 L 2.609375 -19.328125 L 5.84375 -19.328125 L 5.84375 -15.484375 L 9.609375 -15.484375 Z M 9.609375 -12.859375 "/></g></g></g><g fill="#ffffff" fill-opacity="1"><g transform="translate(133.008299, 303.701102)"><g><path d="M 12.3125 -3.9375 C 13.238281 -4.882812 13.703125 -6.15625 13.703125 -7.75 C 13.703125 -9.34375 13.238281 -10.609375 12.3125 -11.546875 C 11.382812 -12.484375 10.285156 -12.953125 9.015625 -12.953125 C 7.742188 -12.953125 6.644531 -12.492188 5.71875 -11.578125 C 4.789062 -10.660156 4.328125 -9.40625 4.328125 -7.8125 C 4.328125 -6.21875 4.789062 -4.9375 5.71875 -3.96875 C 6.644531 -3.007812 7.742188 -2.53125 9.015625 -2.53125 C 10.285156 -2.53125 11.382812 -3 12.3125 -3.9375 Z M 8.34375 0.25 C 6.28125 0.25 4.546875 -0.5 3.140625 -2 C 1.742188 -3.507812 1.046875 -5.441406 1.046875 -7.796875 C 1.046875 -10.148438 1.738281 -12.0625 3.125 -13.53125 C 4.519531 -15 6.257812 -15.734375 8.34375 -15.734375 C 9.5625 -15.734375 10.632812 -15.457031 11.5625 -14.90625 C 12.488281 -14.351562 13.203125 -13.625 13.703125 -12.71875 L 13.703125 -15.484375 L 16.9375 -15.484375 L 16.9375 0 L 13.703125 0 L 13.703125 -2.890625 C 13.179688 -1.929688 12.460938 -1.164062 11.546875 -0.59375 C 10.628906 -0.03125 9.5625 0.25 8.34375 0.25 Z M 8.34375 0.25 "/></g></g></g><g fill="#ffffff" fill-opacity="1"><g transform="translate(152.050892, 303.701102)"><g><path d="M 5.3125 -15.484375 L 5.3125 -12.78125 C 6.300781 -14.75 7.84375 -15.734375 9.9375 -15.734375 L 9.9375 -12.421875 L 9.125 -12.421875 C 7.875 -12.421875 6.925781 -12.097656 6.28125 -11.453125 C 5.632812 -10.816406 5.3125 -9.710938 5.3125 -8.140625 L 5.3125 0 L 2.109375 0 L 2.109375 -15.484375 Z M 5.3125 -15.484375 "/></g></g></g><g fill="#ffffff" fill-opacity="1"><g transform="translate(162.836078, 303.701102)"><g><path d="M 8.625 0.25 C 6.375 0.25 4.546875 -0.476562 3.140625 -1.9375 C 1.742188 -3.394531 1.046875 -5.332031 1.046875 -7.75 C 1.046875 -10.164062 1.753906 -12.097656 3.171875 -13.546875 C 4.597656 -15.003906 6.4375 -15.734375 8.6875 -15.734375 C 10.945312 -15.734375 12.78125 -15.035156 14.1875 -13.640625 C 15.59375 -12.242188 16.296875 -10.421875 16.296875 -8.171875 C 16.296875 -7.628906 16.257812 -7.125 16.1875 -6.65625 L 4.328125 -6.65625 C 4.398438 -5.363281 4.832031 -4.335938 5.625 -3.578125 C 6.425781 -2.816406 7.425781 -2.4375 8.625 -2.4375 C 10.363281 -2.4375 11.59375 -3.160156 12.3125 -4.609375 L 15.765625 -4.609375 C 15.296875 -3.179688 14.441406 -2.015625 13.203125 -1.109375 C 11.960938 -0.203125 10.4375 0.25 8.625 0.25 Z M 12.953125 -8.84375 C 12.929688 -10.125 12.507812 -11.140625 11.6875 -11.890625 C 10.863281 -12.648438 9.859375 -13.03125 8.671875 -13.03125 C 7.492188 -13.03125 6.503906 -12.648438 5.703125 -11.890625 C 4.910156 -11.140625 4.460938 -10.125 4.359375 -8.84375 Z M 12.953125 -8.84375 "/></g></g></g><g fill="#ffffff" fill-opacity="1"><g transform="translate(180.165407, 303.701102)"><g><path d="M 8.59375 -15.484375 L 8.59375 -12.859375 L 5.734375 -12.859375 L 5.734375 0 L 2.5 0 L 2.5 -12.859375 L 0.671875 -12.859375 L 0.671875 -15.484375 L 2.5 -15.484375 L 2.5 -16.578125 C 2.5 -18.359375 2.972656 -19.65625 3.921875 -20.46875 C 4.867188 -21.28125 6.351562 -21.6875 8.375 -21.6875 L 8.375 -19.015625 C 7.394531 -19.015625 6.707031 -18.832031 6.3125 -18.46875 C 5.925781 -18.101562 5.734375 -17.472656 5.734375 -16.578125 L 5.734375 -15.484375 Z M 8.59375 -15.484375 "/></g></g></g><g fill="#ffffff" fill-opacity="1"><g transform="translate(189.4901, 303.701102)"><g><path d="M 12.3125 -3.9375 C 13.238281 -4.882812 13.703125 -6.15625 13.703125 -7.75 C 13.703125 -9.34375 13.238281 -10.609375 12.3125 -11.546875 C 11.382812 -12.484375 10.285156 -12.953125 9.015625 -12.953125 C 7.742188 -12.953125 6.644531 -12.492188 5.71875 -11.578125 C 4.789062 -10.660156 4.328125 -9.40625 4.328125 -7.8125 C 4.328125 -6.21875 4.789062 -4.9375 5.71875 -3.96875 C 6.644531 -3.007812 7.742188 -2.53125 9.015625 -2.53125 C 10.285156 -2.53125 11.382812 -3 12.3125 -3.9375 Z M 8.34375 0.25 C 6.28125 0.25 4.546875 -0.5 3.140625 -2 C 1.742188 -3.507812 1.046875 -5.441406 1.046875 -7.796875 C 1.046875 -10.148438 1.738281 -12.0625 3.125 -13.53125 C 4.519531 -15 6.257812 -15.734375 8.34375 -15.734375 C 9.5625 -15.734375 10.632812 -15.457031 11.5625 -14.90625 C 12.488281 -14.351562 13.203125 -13.625 13.703125 -12.71875 L 13.703125 -15.484375 L 16.9375 -15.484375 L 16.9375 0 L 13.703125 0 L 13.703125 -2.890625 C 13.179688 -1.929688 12.460938 -1.164062 11.546875 -0.59375 C 10.628906 -0.03125 9.5625 0.25 8.34375 0.25 Z M 8.34375 0.25 "/></g></g></g><g fill="#ffffff" fill-opacity="1"><g transform="translate(208.532693, 303.701102)"><g><path d="M 1.40625 -11.046875 C 1.40625 -12.347656 1.957031 -13.453125 3.0625 -14.359375 C 4.164062 -15.273438 5.613281 -15.734375 7.40625 -15.734375 C 9.207031 -15.734375 10.632812 -15.285156 11.6875 -14.390625 C 12.75 -13.503906 13.320312 -12.296875 13.40625 -10.765625 L 10.109375 -10.765625 C 10.054688 -11.523438 9.789062 -12.117188 9.3125 -12.546875 C 8.832031 -12.984375 8.160156 -13.203125 7.296875 -13.203125 C 6.441406 -13.203125 5.769531 -13.007812 5.28125 -12.625 C 4.789062 -12.238281 4.546875 -11.734375 4.546875 -11.109375 C 4.546875 -10.484375 4.851562 -9.992188 5.46875 -9.640625 C 6.09375 -9.285156 6.847656 -9.019531 7.734375 -8.84375 C 8.628906 -8.675781 9.519531 -8.46875 10.40625 -8.21875 C 11.300781 -7.976562 12.054688 -7.535156 12.671875 -6.890625 C 13.285156 -6.242188 13.59375 -5.378906 13.59375 -4.296875 C 13.59375 -2.953125 13.023438 -1.859375 11.890625 -1.015625 C 10.765625 -0.171875 9.3125 0.25 7.53125 0.25 C 5.75 0.25 4.304688 -0.175781 3.203125 -1.03125 C 2.097656 -1.894531 1.488281 -3.125 1.375 -4.71875 L 4.6875 -4.71875 C 4.75 -3.945312 5.03125 -3.347656 5.53125 -2.921875 C 6.039062 -2.492188 6.726562 -2.28125 7.59375 -2.28125 C 8.46875 -2.28125 9.160156 -2.46875 9.671875 -2.84375 C 10.191406 -3.226562 10.453125 -3.738281 10.453125 -4.375 C 10.453125 -5.019531 10.140625 -5.519531 9.515625 -5.875 C 8.898438 -6.226562 8.144531 -6.492188 7.25 -6.671875 C 6.363281 -6.847656 5.476562 -7.050781 4.59375 -7.28125 C 3.707031 -7.519531 2.953125 -7.945312 2.328125 -8.5625 C 1.710938 -9.1875 1.40625 -10.015625 1.40625 -11.046875 Z M 1.40625 -11.046875 "/></g></g></g><g fill="#ffffff" fill-opacity="1"><g transform="translate(223.530849, 303.701102)"><g/></g></g><g fill="#ffffff" fill-opacity="1"><g transform="translate(231.956763, 303.701102)"><g><path d="M 12.15625 -3.84375 C 13.09375 -4.78125 13.5625 -6.082031 13.5625 -7.75 C 13.5625 -9.414062 13.109375 -10.710938 12.203125 -11.640625 C 11.296875 -12.566406 10.195312 -13.03125 8.90625 -13.03125 C 7.613281 -13.03125 6.523438 -12.566406 5.640625 -11.640625 C 4.765625 -10.710938 4.328125 -9.410156 4.328125 -7.734375 C 4.328125 -6.054688 4.753906 -4.753906 5.609375 -3.828125 C 6.472656 -2.898438 7.546875 -2.4375 8.828125 -2.4375 C 10.117188 -2.4375 11.226562 -2.90625 12.15625 -3.84375 Z M 8.828125 0.25 C 6.578125 0.25 4.71875 -0.484375 3.25 -1.953125 C 1.789062 -3.421875 1.0625 -5.347656 1.0625 -7.734375 C 1.0625 -10.128906 1.816406 -12.0625 3.328125 -13.53125 C 4.835938 -15 6.710938 -15.734375 8.953125 -15.734375 C 11.203125 -15.734375 13.082031 -15 14.59375 -13.53125 C 16.101562 -12.0625 16.859375 -10.132812 16.859375 -7.75 C 16.859375 -5.375 16.082031 -3.445312 14.53125 -1.96875 C 12.988281 -0.488281 11.085938 0.25 8.828125 0.25 Z M 8.828125 0.25 "/></g></g></g><g fill="#ffffff" fill-opacity="1"><g transform="translate(249.875903, 303.701102)"><g><path d="M 5.3125 -15.484375 L 5.3125 -13.03125 C 6.34375 -14.832031 7.988281 -15.734375 10.25 -15.734375 C 11.988281 -15.734375 13.425781 -15.148438 14.5625 -13.984375 C 15.695312 -12.828125 16.265625 -11.207031 16.265625 -9.125 L 16.265625 0 L 13.09375 0 L 13.09375 -8.65625 C 13.09375 -10.039062 12.742188 -11.101562 12.046875 -11.84375 C 11.359375 -12.582031 10.414062 -12.953125 9.21875 -12.953125 C 8.019531 -12.953125 7.066406 -12.582031 6.359375 -11.84375 C 5.660156 -11.101562 5.3125 -10.039062 5.3125 -8.65625 L 5.3125 0 L 2.109375 0 L 2.109375 -15.484375 Z M 5.3125 -15.484375 "/></g></g></g><g fill="#ffffff" fill-opacity="1"><g transform="translate(268.103984, 303.701102)"><g><path d="M 2.109375 0 L 2.109375 -20.796875 L 5.3125 -20.796875 L 5.3125 0 Z M 2.109375 0 "/></g></g></g><g fill="#ffffff" fill-opacity="1"><g transform="translate(275.518809, 303.701102)"><g><path d="M 5.765625 -19.578125 C 5.765625 -18.992188 5.566406 -18.503906 5.171875 -18.109375 C 4.773438 -17.722656 4.289062 -17.53125 3.71875 -17.53125 C 3.144531 -17.53125 2.660156 -17.722656 2.265625 -18.109375 C 1.878906 -18.503906 1.6875 -18.992188 1.6875 -19.578125 C 1.6875 -20.160156 1.878906 -20.644531 2.265625 -21.03125 C 2.660156 -21.425781 3.144531 -21.625 3.71875 -21.625 C 4.289062 -21.625 4.773438 -21.425781 5.171875 -21.03125 C 5.566406 -20.644531 5.765625 -20.160156 5.765625 -19.578125 Z M 2.109375 0 L 2.109375 -15.484375 L 5.3125 -15.484375 L 5.3125 0 Z M 2.109375 0 "/></g></g></g><g fill="#ffffff" fill-opacity="1"><g transform="translate(282.933634, 303.701102)"><g><path d="M 5.3125 -15.484375 L 5.3125 -13.03125 C 6.34375 -14.832031 7.988281 -15.734375 10.25 -15.734375 C 11.988281 -15.734375 13.425781 -15.148438 14.5625 -13.984375 C 15.695312 -12.828125 16.265625 -11.207031 16.265625 -9.125 L 16.265625 0 L 13.09375 0 L 13.09375 -8.65625 C 13.09375 -10.039062 12.742188 -11.101562 12.046875 -11.84375 C 11.359375 -12.582031 10.414062 -12.953125 9.21875 -12.953125 C 8.019531 -12.953125 7.066406 -12.582031 6.359375 -11.84375 C 5.660156 -11.101562 5.3125 -10.039062 5.3125 -8.65625 L 5.3125 0 L 2.109375 0 L 2.109375 -15.484375 Z M 5.3125 -15.484375 "/></g></g></g><g fill="#ffffff" fill-opacity="1"><g transform="translate(301.161715, 303.701102)"><g><path d="M 8.625 0.25 C 6.375 0.25 4.546875 -0.476562 3.140625 -1.9375 C 1.742188 -3.394531 1.046875 -5.332031 1.046875 -7.75 C 1.046875 -10.164062 1.753906 -12.097656 3.171875 -13.546875 C 4.597656 -15.003906 6.4375 -15.734375 8.6875 -15.734375 C 10.945312 -15.734375 12.78125 -15.035156 14.1875 -13.640625 C 15.59375 -12.242188 16.296875 -10.421875 16.296875 -8.171875 C 16.296875 -7.628906 16.257812 -7.125 16.1875 -6.65625 L 4.328125 -6.65625 C 4.398438 -5.363281 4.832031 -4.335938 5.625 -3.578125 C 6.425781 -2.816406 7.425781 -2.4375 8.625 -2.4375 C 10.363281 -2.4375 11.59375 -3.160156 12.3125 -4.609375 L 15.765625 -4.609375 C 15.296875 -3.179688 14.441406 -2.015625 13.203125 -1.109375 C 11.960938 -0.203125 10.4375 0.25 8.625 0.25 Z M 12.953125 -8.84375 C 12.929688 -10.125 12.507812 -11.140625 11.6875 -11.890625 C 10.863281 -12.648438 9.859375 -13.03125 8.671875 -13.03125 C 7.492188 -13.03125 6.503906 -12.648438 5.703125 -11.890625 C 4.910156 -11.140625 4.460938 -10.125 4.359375 -8.84375 Z M 12.953125 -8.84375 "/></g></g></g></svg>