<svg xmlns="http://www.w3.org/2000/svg" xmlns:xlink="http://www.w3.org/1999/xlink" width="500" zoomAndPan="magnify" viewBox="0 0 375 374.999991" height="500" preserveAspectRatio="xMidYMid meet" version="1.0"><defs><clipPath id="ce177cc338"><path d="M 21.679688 21.679688 L 353.980469 21.679688 L 353.980469 353.320312 L 21.679688 353.320312 Z M 21.679688 21.679688 " clip-rule="nonzero"/></clipPath><clipPath id="f46e53b96e"><path d="M 353.320312 187.503906 C 353.320312 279.078125 279.078125 353.320312 187.5 353.320312 C 95.921875 353.320312 21.679688 279.078125 21.679688 187.503906 C 21.679688 95.921875 95.921875 21.679688 187.5 21.679688 C 279.078125 21.679688 353.320312 95.921875 353.320312 187.503906 Z M 353.320312 187.503906 " clip-rule="nonzero"/></clipPath><clipPath id="8f4bed96a8"><path d="M 87.769531 34.402344 L 287 34.402344 L 287 317 L 87.769531 317 Z M 87.769531 34.402344 " clip-rule="nonzero"/></clipPath></defs><g clip-path="url(#ce177cc338)"><g clip-path="url(#f46e53b96e)"><path fill="#ff914d" d="M 21.679688 21.679688 L 353.316406 21.679688 L 353.316406 353.320312 L 21.679688 353.320312 Z M 21.679688 21.679688 " fill-opacity="1" fill-rule="nonzero"/></g></g><g clip-path="url(#8f4bed96a8)"><path fill="#040404" d="M 286.691406 243.972656 C 286.578125 243.363281 286.886719 242.78125 286.808594 242.171875 C 286.589844 240.464844 287.273438 241.273438 285.675781 237.273438 C 285.367188 236.636719 285.046875 235.890625 284.324219 235.644531 C 284.21875 235.199219 284.144531 234.746094 283.988281 234.320312 C 283.804688 233.898438 283.941406 233.429688 283.832031 232.992188 C 283.695312 232.421875 284.105469 231.871094 283.945312 231.300781 C 283.78125 230.503906 283.847656 229.648438 283.476562 228.90625 C 283.441406 228.832031 282.273438 226.378906 282.066406 226.082031 C 282.039062 226.035156 277.296875 220.824219 276.519531 219.558594 C 275.597656 218.101562 272.769531 216.074219 271.941406 213.867188 C 271.078125 211.609375 269.15625 210.058594 267.765625 208.421875 C 267.539062 208.179688 266.292969 206.46875 265.230469 206.445312 C 261.664062 206.210938 262.050781 206.582031 260.59375 206.285156 C 259.140625 205.972656 255.761719 205.433594 254.441406 206.003906 C 253.929688 206.222656 253.382812 206.390625 252.929688 206.714844 C 252.636719 207.03125 252.558594 207.539062 252.144531 207.75 C 251.742188 207.953125 251.324219 207.699219 250.949219 207.5625 C 250.214844 207.230469 249.390625 207.289062 248.609375 207.15625 C 248.054688 207.101562 247.503906 206.894531 246.941406 206.964844 C 245.824219 207.632812 246.28125 208.375 246.148438 209.238281 C 245.96875 209.628906 245.46875 209.496094 245.132812 209.613281 C 244.902344 209.949219 244.878906 210.460938 244.464844 210.644531 C 244.023438 210.902344 243.496094 210.910156 243.039062 211.105469 C 242.90625 211.460938 242.890625 211.886719 242.59375 212.15625 C 242.191406 212.507812 241.554688 212.347656 241.175781 212.738281 C 240.882812 213.0625 240.714844 213.472656 240.488281 213.84375 C 239.636719 215.402344 240.179688 215.578125 240.550781 216.15625 C 240.984375 216.742188 241.050781 217.507812 241.449219 218.117188 C 241.59375 218.433594 241.890625 218.777344 241.773438 219.144531 C 241.617188 219.457031 241.277344 219.238281 241.046875 219.15625 C 240.035156 218.695312 238.894531 218.761719 237.8125 218.753906 C 236.847656 218.742188 235.878906 219.175781 234.9375 218.800781 C 234.207031 218.511719 233.472656 218.898438 232.730469 218.882812 C 232.332031 218.875 231.949219 218.976562 231.558594 219.03125 C 231.074219 218.992188 230.617188 218.675781 230.121094 218.8125 C 229.320312 218.984375 228.390625 219.152344 227.667969 218.65625 C 227.023438 218.402344 226.308594 218.453125 225.628906 218.429688 C 225.039062 218.421875 224.535156 218.054688 223.960938 217.96875 C 223.484375 217.851562 222.964844 218.015625 222.515625 217.785156 C 221.886719 217.46875 221.214844 217.253906 220.558594 217.011719 C 220.140625 216.84375 219.726562 217.136719 219.308594 217.078125 C 218.742188 216.902344 218.4375 216.214844 217.800781 216.226562 C 217.519531 216.183594 217.34375 216.425781 217.132812 216.5625 C 216.648438 216.523438 216.394531 216 215.929688 215.890625 C 215.511719 215.71875 214.996094 215.921875 214.632812 215.613281 C 212.570312 214.046875 213.308594 214.464844 212.28125 214.023438 C 211.902344 213.867188 211.71875 213.425781 211.3125 213.316406 C 210.945312 213.234375 210.675781 212.96875 210.359375 212.789062 C 202.941406 209.339844 201.234375 208.714844 198.582031 207.003906 C 198.242188 206.761719 197.792969 206.785156 197.449219 206.554688 C 196.949219 206.234375 196.476562 205.800781 195.867188 205.726562 C 193.832031 205.523438 192.8125 204.867188 191.699219 204.152344 C 190.800781 203.558594 190.519531 204.328125 188.480469 203.039062 C 187.550781 202.4375 185.339844 198.8125 184.703125 197.914062 C 183.246094 195.941406 183.613281 195.792969 182.40625 195.558594 C 181.945312 195.464844 181.480469 195.628906 181.019531 195.570312 C 180.867188 195.476562 154.898438 118.824219 126.257812 34.425781 C 125.519531 34.417969 124.785156 34.414062 124.050781 34.40625 C 129.265625 49.820312 177.117188 190.660156 178.285156 196.035156 C 177.949219 196.808594 176.796875 196.816406 176.558594 197.679688 C 176.484375 198.257812 176.847656 198.777344 177.09375 199.273438 C 177.1875 199.613281 177.066406 199.972656 177.105469 200.324219 C 177.160156 200.492188 177.300781 200.617188 177.390625 200.769531 C 177.804688 201.664062 177.546875 202.667969 177.746094 203.605469 C 178.160156 206.050781 177.789062 205.3125 179.410156 207.015625 C 180.542969 208.191406 181.597656 207.769531 181.453125 209.566406 C 181.375 210.320312 179.726562 210.300781 179.519531 211.410156 C 179.390625 211.808594 179.496094 212.226562 179.484375 212.632812 C 179.335938 212.925781 179.074219 213.167969 179.015625 213.5 C 178.988281 213.894531 179.136719 214.273438 179.164062 214.667969 C 179.191406 215.105469 178.9375 215.496094 178.9375 215.929688 C 178.921875 216.367188 179.09375 216.804688 178.988281 217.242188 C 178.882812 217.742188 178.902344 218.257812 178.992188 218.757812 C 179.222656 219.246094 179.546875 219.683594 179.828125 220.140625 C 180.210938 220.746094 181.054688 220.792969 181.453125 221.378906 C 181.664062 222.550781 179.3125 235.460938 177.828125 244.292969 C 177.617188 245.5625 177.53125 247.105469 177.03125 248.296875 C 176.734375 248.300781 176.433594 248.320312 176.148438 248.234375 C 175.179688 247.925781 174.167969 247.75 173.214844 247.382812 C 172.902344 247.214844 172.539062 247.253906 172.199219 247.203125 C 171.707031 247.113281 171.25 246.898438 170.773438 246.757812 C 170.320312 246.664062 169.851562 246.660156 169.414062 246.507812 C 169.015625 246.355469 168.578125 246.414062 168.164062 246.363281 C 167.578125 246.296875 167.0625 245.941406 166.460938 245.949219 C 165.660156 245.917969 164.933594 245.515625 164.128906 245.535156 C 163.320312 245.449219 162.507812 245.363281 161.691406 245.332031 C 161.097656 245.328125 160.636719 244.773438 160.027344 244.84375 C 158.925781 245.027344 155.648438 243.691406 154.304688 243.367188 C 150.398438 242.414062 146.128906 242.0625 142.117188 242.167969 C 141.582031 242.179688 141.050781 242.042969 140.523438 242.144531 C 139.640625 242.3125 139.164062 241.707031 138.46875 241.375 C 137.710938 241.015625 136.925781 241.101562 136.128906 240.96875 C 136.128906 240.96875 132.402344 239.867188 127.867188 238.609375 C 123.929688 237.519531 120.480469 237.152344 115.289062 235.078125 C 113.210938 234.246094 110.933594 233.601562 108.933594 232.59375 C 108.46875 232.335938 107.902344 232.4375 107.429688 232.1875 C 106.648438 231.769531 105.726562 231.71875 104.957031 231.28125 C 104.792969 231.199219 104.730469 231.023438 104.640625 230.878906 C 106.625 229.925781 105.871094 231.164062 108.34375 232.300781 C 108.664062 231.894531 108.945312 231.457031 109.277344 231.066406 C 107.402344 230.179688 105.75 228.691406 103.46875 227.34375 C 103.175781 227.15625 103.070312 226.78125 102.765625 226.601562 C 102.5625 226.453125 102.28125 226.378906 102.1875 226.121094 C 101.734375 225.160156 101.074219 225.09375 100.125 225.019531 C 99.882812 225.382812 99.320312 225.480469 99.007812 225.15625 C 98.59375 224.824219 98.464844 224.289062 98.203125 223.851562 C 98.066406 223.609375 97.792969 223.480469 97.648438 223.246094 C 97.476562 222.984375 97.367188 222.691406 97.1875 222.433594 C 96.792969 222.015625 96.167969 221.832031 95.882812 221.308594 C 95.683594 220.957031 95.429688 220.632812 95.121094 220.375 C 94.683594 220.171875 94.195312 219.992188 93.894531 219.589844 C 93.628906 219.179688 93.667969 218.65625 93.457031 218.222656 C 93.210938 217.707031 92.828125 217.261719 92.640625 216.714844 C 92.421875 216.089844 91.433594 214.332031 90.945312 213.949219 C 90.410156 213.914062 89.890625 214.105469 89.375 214.21875 C 87.769531 214.542969 87.828125 219.121094 88.039062 220.582031 C 88.113281 221.238281 88.328125 221.863281 88.402344 222.519531 C 88.480469 223.261719 88.742188 223.964844 88.867188 224.695312 C 88.976562 225.214844 88.941406 225.753906 89.101562 226.261719 C 90.210938 229.976562 90.527344 233.574219 92.363281 238.683594 C 92.796875 240.050781 93.011719 241.492188 93.636719 242.796875 C 94.0625 243.636719 94.164062 244.628906 94.742188 245.394531 C 95.023438 245.722656 95.238281 246.109375 95.5625 246.402344 C 96.289062 246.539062 97.042969 246.429688 97.722656 246.140625 C 98.660156 245.75 99.679688 245.566406 100.574219 245.074219 C 101.648438 244.484375 102.835938 244.09375 103.816406 243.347656 C 105.1875 242.324219 105.65625 243.34375 107.394531 243.960938 C 108.082031 244.207031 108.777344 244.4375 109.40625 244.8125 C 110.535156 245.484375 111.8125 245.84375 112.992188 246.40625 C 113.546875 246.648438 114.027344 247.042969 114.621094 247.191406 C 115.890625 247.503906 121.039062 250.503906 121.371094 250.734375 C 124.921875 253.171875 126.710938 253.398438 132.632812 254.796875 C 135.242188 255.199219 137.890625 255.808594 140.535156 255.394531 C 141.085938 255.296875 141.710938 255.566406 141.945312 256.085938 C 142.140625 256.503906 142.023438 256.976562 142.109375 257.414062 C 142.183594 257.765625 142.230469 258.125 142.265625 258.484375 C 142.324219 259.164062 142.628906 259.789062 142.757812 260.457031 C 142.898438 261.144531 143.59375 265.742188 143.78125 266.417969 C 144.042969 267.351562 144.304688 268.296875 144.316406 269.273438 C 144.382812 273.476562 145.960938 279.585938 145.707031 282.566406 C 145.605469 283.671875 146.164062 288.226562 146.191406 288.402344 C 146.253906 289.09375 146.226562 289.796875 146.3125 290.488281 C 146.347656 290.804688 146.574219 291.058594 146.65625 291.363281 C 146.730469 291.796875 146.628906 292.242188 146.734375 292.675781 C 146.867188 293.238281 146.96875 293.824219 146.875 294.40625 C 146.507812 294.566406 145.996094 294.464844 145.886719 294.035156 C 145.777344 293.515625 145.800781 292.964844 145.550781 292.476562 C 145.160156 292.460938 144.691406 292.199219 144.363281 292.527344 C 144.132812 292.714844 143.894531 292.914062 143.742188 293.179688 C 143.671875 293.609375 143.730469 294.058594 143.5625 294.472656 C 143.082031 295.644531 143.011719 296.960938 143.207031 298.203125 C 143.234375 298.644531 143.726562 298.761719 143.941406 299.082031 C 144.289062 300.140625 142.742188 300.425781 142.722656 302.484375 C 142.871094 302.480469 143.023438 302.480469 143.175781 302.484375 C 143.316406 302.046875 143.417969 301.570312 143.730469 301.210938 C 144.71875 300.085938 144.421875 300.03125 144.964844 299.875 C 144.617188 300.609375 144.484375 301.421875 144.164062 302.167969 C 143.933594 302.726562 143.707031 303.296875 143.671875 303.910156 C 143.601562 304.691406 142.402344 306.542969 141.960938 307.800781 C 141.75 308.398438 141.367188 308.917969 141.144531 309.511719 C 139.566406 313.609375 138.945312 313.238281 139.179688 315.125 C 139.269531 315.648438 139.695312 316.011719 140.074219 316.339844 C 140.9375 317.148438 142.441406 316.648438 143.5625 316.285156 C 144.230469 316.066406 144.988281 316.140625 145.644531 315.875 C 146.414062 315.558594 147.085938 314.929688 147.757812 314.433594 C 151.390625 311.765625 155.136719 309.140625 157.226562 304.964844 C 157.789062 304.09375 158.667969 303.507812 159.421875 302.816406 C 160.261719 302.175781 160.882812 301.316406 161.601562 300.550781 C 162.519531 299.53125 163.214844 298.347656 163.964844 297.207031 C 164.425781 296.472656 164.804688 296.808594 165.289062 297.027344 C 165.414062 296.605469 165.378906 295.851562 166.304688 296.367188 C 166.898438 296.730469 167.601562 296.816406 168.277344 296.933594 C 168.625 297.019531 168.835938 296.660156 169.007812 296.425781 C 169.207031 296.148438 168.878906 295.75 169.152344 295.503906 C 169.453125 295.414062 169.753906 295.578125 170.054688 295.59375 C 170.324219 295.542969 170.539062 295.304688 170.589844 295.039062 C 170.671875 294.617188 169.335938 294.296875 169.421875 293.476562 C 169.554688 293.011719 170.066406 292.863281 170.496094 292.839844 C 170.347656 291.699219 168.339844 291.710938 167.183594 290.097656 C 166.65625 289.402344 166.320312 288.582031 166.027344 287.761719 C 165.726562 287 165.890625 286.171875 165.753906 285.382812 C 165.671875 284.007812 164.566406 283.054688 165.933594 280.644531 C 166.445312 280.734375 166.9375 281.191406 167.460938 280.925781 C 167.820312 280.820312 168.167969 280.578125 168.554688 280.660156 C 169.070312 280.742188 169.597656 280.75 170.113281 280.832031 C 170.421875 280.902344 170.648438 280.558594 170.957031 280.613281 C 171.714844 280.671875 172.199219 281.398438 177.503906 284.226562 C 178.035156 284.496094 178.507812 284.863281 179.042969 285.125 C 179.710938 285.449219 180.398438 285.773438 180.953125 286.28125 C 181.460938 286.574219 182.039062 286.71875 182.566406 286.976562 C 183.070312 287.140625 183.472656 287.492188 183.945312 287.71875 C 187.445312 288.792969 188.300781 288.109375 190.789062 286.929688 C 190.683594 286.757812 190.539062 286.5625 190.695312 286.375 C 192.546875 283.300781 191.285156 281.914062 191.113281 280.976562 C 191.707031 281.132812 193.679688 282.136719 196.511719 281.558594 C 197.128906 281.449219 197.714844 281.210938 198.335938 281.125 C 198.703125 281.046875 199.109375 281.027344 199.429688 280.808594 C 199.6875 280.535156 199.847656 280.179688 200.117188 279.914062 C 200.476562 279.539062 201.003906 279.410156 201.390625 279.074219 C 202.828125 277.847656 202.582031 278.617188 204.335938 277.160156 C 204.59375 276.921875 204.929688 276.746094 205.085938 276.417969 C 205.332031 275.9375 205.695312 275.527344 205.941406 275.042969 C 206.179688 274.585938 206.777344 274.457031 206.992188 273.984375 C 207.316406 273.238281 207.9375 272.65625 208.617188 272.230469 C 209.167969 271.84375 209.046875 272.179688 211.792969 274.300781 C 212.152344 274.597656 212.515625 274.980469 213.015625 274.996094 C 213.714844 274.933594 214.363281 274.597656 214.910156 274.167969 C 217.285156 272.277344 217.289062 272.863281 218.488281 272.570312 C 218.875 272.253906 218.964844 271.726562 219.289062 271.363281 C 219.765625 270.8125 220.429688 270.488281 221.050781 270.140625 C 221.335938 269.988281 221.5 269.675781 221.804688 269.558594 C 222.351562 269.351562 222.539062 268.730469 223.007812 268.417969 C 223.609375 268.007812 224.160156 267.53125 224.660156 266.996094 C 225.015625 266.601562 225.496094 266.367188 225.925781 266.066406 C 225.921875 265.867188 225.796875 265.613281 225.992188 265.46875 C 230.015625 261.746094 227.695312 263.359375 230.074219 260.984375 C 230.519531 260.550781 230.882812 260.035156 231.34375 259.617188 C 231.738281 259.1875 232.308594 258.910156 232.511719 258.335938 C 232.746094 257.6875 233.410156 257.398438 233.910156 256.988281 C 234.378906 256.605469 234.976562 256.445312 235.488281 256.132812 C 235.902344 255.664062 236.414062 255.285156 236.773438 254.769531 C 237.039062 254.402344 237.320312 254.050781 237.640625 253.734375 C 237.921875 253.457031 238.109375 253.082031 238.457031 252.875 C 238.878906 252.65625 239.027344 252.167969 239.320312 251.824219 C 239.757812 251.285156 240.019531 250.640625 240.246094 249.992188 C 240.394531 249.519531 240.847656 249.253906 241.148438 248.890625 C 241.566406 248.355469 242.167969 248.007812 242.59375 247.476562 C 244.394531 245.132812 244.59375 244.945312 244.949219 244.785156 C 245.292969 244.621094 245.378906 244.210938 245.621094 243.945312 C 246.066406 243.441406 246.46875 242.898438 246.949219 242.421875 C 247.472656 241.878906 247.796875 241.167969 248.363281 240.65625 C 249.371094 239.746094 250.164062 238.601562 250.667969 237.34375 C 250.800781 237 251.277344 237.050781 251.4375 236.734375 C 251.8125 236.085938 252.089844 235.386719 252.351562 234.6875 C 252.425781 234.394531 252.871094 234.46875 252.871094 234.761719 C 252.8125 235.371094 252.453125 235.886719 252.277344 236.457031 C 252.269531 237.160156 252.882812 237.820312 252.621094 238.539062 C 252.535156 238.800781 252.238281 238.796875 252.03125 238.707031 C 252.054688 238.5 252.078125 238.296875 252.09375 238.089844 C 251.988281 238.371094 252.054688 238.675781 252 238.96875 C 251.871094 239.316406 251.734375 239.664062 251.636719 240.023438 C 251.695312 240.09375 251.757812 240.164062 251.824219 240.238281 C 252.316406 239.335938 252.101562 239.265625 252.78125 239.402344 C 252.652344 239.808594 252.445312 240.1875 252.382812 240.613281 C 252.296875 241.167969 252.089844 241.703125 252.0625 242.269531 C 252.046875 242.773438 251.679688 243.203125 251.714844 243.714844 C 251.769531 244.945312 251.195312 244.910156 251.382812 247.972656 C 251.371094 248.136719 251.535156 248.214844 251.636719 248.316406 C 251.675781 248.167969 251.71875 248.019531 251.761719 247.871094 C 252.222656 248.121094 252.636719 248.457031 253.140625 248.628906 C 253.019531 248.417969 252.894531 248.207031 252.761719 248.007812 C 252.882812 247.832031 253 247.65625 253.117188 247.480469 C 252.84375 247.492188 252.570312 247.484375 252.296875 247.488281 C 251.957031 246.925781 252.324219 246.269531 252.078125 245.6875 C 252.027344 245.484375 251.886719 245.261719 252.027344 245.066406 C 252.820312 243.570312 252.199219 243.695312 252.925781 243.191406 C 252.921875 243.421875 252.910156 243.652344 252.898438 243.886719 C 253.21875 243.609375 253.421875 243.207031 253.304688 242.78125 C 253.128906 242.183594 254.429688 241.316406 254.800781 240.523438 C 254.863281 240.320312 255.082031 240.292969 255.257812 240.246094 C 255.417969 240.75 255.296875 241.273438 255.316406 241.792969 C 255.480469 241.792969 255.648438 241.792969 255.816406 241.796875 C 255.410156 242.925781 256.023438 244.363281 255.578125 245.125 C 255.34375 245.566406 254.898438 245.875 254.734375 246.363281 C 254.25 248.140625 253.980469 249.84375 255.214844 251.214844 C 255.734375 251.832031 256.992188 251.3125 257.367188 251.703125 C 257.71875 252.019531 258.238281 252.152344 258.472656 252.589844 C 258.65625 252.625 258.839844 252.660156 259.027344 252.695312 C 259.058594 252.867188 259.085938 253.046875 259.117188 253.222656 C 260.300781 253.441406 260.488281 254.9375 262.382812 256.125 C 262.859375 256.179688 263.351562 255.980469 263.820312 256.152344 C 264.664062 256.625 265.230469 257.472656 265.5 258.386719 C 265.65625 258.746094 265.609375 259.144531 265.605469 259.527344 C 265.898438 259.34375 266.101562 259.058594 266.371094 258.855469 C 266.519531 258.757812 266.773438 258.738281 266.878906 258.914062 C 266.914062 259.273438 266.816406 259.632812 266.859375 259.996094 C 267.386719 261.035156 267.492188 260.386719 268.351562 261.222656 C 268.429688 261.183594 268.507812 261.148438 268.59375 261.121094 C 268.320312 260.839844 267.894531 260.589844 267.910156 260.148438 C 267.890625 259.597656 267.828125 259.050781 267.820312 258.503906 C 268.507812 258.328125 269.152344 259.609375 269.851562 259.875 C 270.394531 260.160156 271.019531 260.207031 271.582031 260.449219 C 272.117188 260.625 272.671875 260.9375 273.257812 260.78125 C 273.820312 260.625 274.417969 260.503906 274.902344 260.164062 C 274.535156 260.035156 274.140625 260.046875 273.765625 259.960938 C 273.453125 259.878906 273.503906 259.472656 273.476562 259.226562 C 274.023438 259.011719 274.566406 259.230469 275.109375 259.320312 C 274.914062 258.972656 274.804688 258.554688 274.464844 258.3125 C 274.210938 258.117188 274.285156 257.757812 274.242188 257.480469 C 275.039062 257.597656 275.410156 258.542969 276.230469 258.59375 C 276.59375 258.621094 276.871094 258.917969 277.238281 258.933594 C 277.53125 258.964844 277.863281 258.863281 278.0625 258.648438 C 278.125 258.320312 277.898438 258.054688 277.730469 257.804688 C 277.863281 257.441406 277.996094 257.074219 278.089844 256.699219 C 278.246094 256.628906 278.40625 256.5625 278.566406 256.503906 C 278.5 256.128906 278.425781 255.761719 278.355469 255.390625 C 278.671875 255.273438 279.003906 255.210938 279.339844 255.15625 C 279.230469 254.820312 279.109375 254.488281 279.105469 254.132812 C 279.230469 254.066406 279.351562 253.972656 279.496094 253.941406 C 279.617188 253.984375 279.726562 254.050781 279.847656 254.109375 C 280.023438 253.929688 280.21875 253.769531 280.445312 253.65625 C 280.664062 253.902344 280.851562 254.246094 281.21875 254.273438 C 281.324219 253.714844 280.882812 253.304688 280.726562 252.808594 C 280.589844 252.464844 280.4375 251.949219 280.816406 251.710938 C 281.078125 251.476562 281.371094 251.273438 281.699219 251.140625 C 281.625 250.722656 281.472656 250.316406 281.441406 249.894531 C 281.441406 249.421875 282.050781 249.480469 282.371094 249.347656 C 282.230469 249.234375 282.085938 249.128906 281.964844 249 C 281.941406 248.753906 282.101562 248.539062 282.148438 248.304688 C 282.03125 247.996094 281.925781 247.683594 281.960938 247.351562 C 282.074219 247.367188 282.195312 247.375 282.316406 247.382812 C 282.339844 247.445312 282.386719 247.570312 282.410156 247.632812 C 282.542969 247.617188 282.679688 247.605469 282.816406 247.597656 C 282.933594 247.773438 283.089844 247.917969 283.25 248.054688 C 283.398438 247.859375 283.59375 247.703125 283.816406 247.601562 C 283.847656 247.457031 283.882812 247.316406 283.917969 247.175781 C 284.285156 247.070312 284.667969 247.070312 285.046875 247.128906 C 284.855469 246.628906 284.511719 246.226562 284.152344 245.839844 C 284.121094 245.546875 284.300781 245.28125 284.40625 245.019531 C 284.324219 244.835938 284.246094 244.65625 284.167969 244.476562 C 284.355469 244.417969 284.5625 244.355469 284.757812 244.429688 C 285.199219 244.660156 285.480469 245.09375 285.664062 245.546875 C 285.757812 245.800781 286.082031 245.628906 286.285156 245.660156 C 286.351562 245.398438 286.394531 245.132812 286.34375 244.871094 C 286.261719 244.511719 286.769531 244.332031 286.691406 243.972656 Z M 101.675781 226.921875 C 101.28125 226.792969 100.902344 226.621094 100.523438 226.460938 C 100.554688 226.15625 100.789062 225.777344 101.125 225.796875 C 101.457031 226.050781 101.726562 226.484375 101.675781 226.921875 Z M 162.804688 284.511719 C 162.933594 284.070312 162.980469 283.609375 163.082031 283.164062 C 163.449219 283.03125 163.742188 282.761719 164.085938 282.589844 C 164.09375 282.976562 163.921875 283.339844 163.90625 283.730469 C 163.863281 284.414062 163.5625 285.050781 163.515625 285.738281 C 163.496094 286.019531 163.425781 286.300781 163.304688 286.5625 C 163.140625 286.410156 162.917969 286.308594 162.789062 286.128906 C 162.695312 285.59375 162.644531 285.035156 162.804688 284.511719 Z M 163.144531 293.324219 C 162.417969 293.183594 162.117188 292.359375 161.453125 292.101562 C 160.820312 291.785156 160.40625 291.1875 159.898438 290.71875 C 159.382812 290.367188 157.582031 289.5625 157.054688 288.988281 C 156.898438 288.164062 157.042969 287.316406 157.0625 286.484375 C 157.089844 286.15625 157.339844 285.910156 157.464844 285.621094 C 157.480469 285.25 157.03125 285.007812 157.105469 284.621094 C 157.265625 283.972656 157.0625 283.308594 157.238281 282.667969 C 157.261719 281.90625 157.289062 281.140625 157.21875 280.382812 C 157.820312 277.308594 157.324219 277.941406 157.390625 277.101562 C 157.457031 276.773438 157.886719 276.71875 157.9375 276.386719 C 158.019531 276.097656 157.75 275.859375 157.71875 275.582031 C 157.773438 275.355469 157.992188 275.164062 157.910156 274.917969 C 157.835938 274.558594 157.839844 274.191406 157.820312 273.828125 C 157.957031 273.660156 158.191406 273.507812 158.125 273.265625 C 158.054688 272.933594 158.140625 272.613281 158.257812 272.308594 C 158.976562 272.484375 159.472656 273.128906 160.128906 273.445312 C 160.726562 273.636719 161.097656 274.191406 161.628906 274.503906 C 161.996094 274.683594 161.933594 275.144531 161.976562 275.492188 C 161.675781 276.007812 161.789062 276.679688 162.203125 277.101562 C 162.351562 277.707031 161.917969 278.335938 161.378906 278.578125 C 161.03125 278.605469 160.730469 278.386719 160.429688 278.242188 C 160.328125 278.277344 160.226562 278.316406 160.121094 278.355469 C 160.089844 278.527344 159.953125 278.71875 160.085938 278.882812 C 160.226562 279.269531 160.710938 279.316406 160.910156 279.644531 C 160.996094 279.976562 160.976562 280.339844 160.847656 280.660156 C 160.722656 280.949219 160.722656 281.328125 160.4375 281.523438 C 159.988281 281.867188 160.316406 282.507812 160.074219 282.953125 C 159.847656 283.378906 159.632812 283.8125 159.484375 284.273438 C 159.414062 284.523438 159.183594 284.699219 159.132812 284.960938 C 159.007812 285.601562 158.605469 286.160156 158.617188 286.828125 C 159.367188 286.929688 159.234375 286.492188 160.546875 285.53125 C 160.71875 285.414062 160.765625 285.191406 160.914062 285.054688 C 161.265625 284.71875 161.488281 284.246094 161.925781 284.003906 C 162.109375 284.59375 161.761719 285.144531 161.777344 285.734375 C 161.589844 286.253906 161.964844 290.53125 162.664062 292.183594 C 162.824219 292.5625 163.175781 292.882812 163.144531 293.324219 Z M 163.277344 289.648438 C 162.472656 289.554688 162.976562 288.871094 162.710938 288.21875 C 162.539062 287.769531 162.585938 287.28125 162.589844 286.816406 C 162.585938 286.703125 162.636719 286.625 162.738281 286.578125 C 163.027344 287.265625 163.007812 288.03125 163.289062 288.71875 C 163.367188 289.019531 163.320312 289.339844 163.277344 289.648438 Z M 163.921875 293.878906 C 163.621094 293.921875 163.390625 293.675781 163.40625 293.386719 C 163.589844 293.398438 163.859375 293.34375 163.933594 293.582031 C 163.929688 293.65625 163.921875 293.804688 163.921875 293.878906 Z M 166.234375 291.671875 C 166.550781 292.285156 167.058594 292.761719 167.441406 293.332031 C 167.714844 293.628906 168.210938 293.804688 168.15625 294.292969 C 167.691406 294.273438 167.234375 294.148438 166.820312 293.953125 C 166.675781 293.890625 166.730469 293.710938 166.707031 293.597656 C 166.289062 293.492188 165.875 293.265625 165.683594 292.863281 C 165.394531 292.292969 164.867188 291.867188 164.652344 291.253906 C 163.160156 287.214844 164.195312 286.085938 164.140625 285.214844 C 164.128906 284.707031 164.289062 283.226562 164.777344 283.1875 C 165.035156 284.980469 164.625 287.089844 165.066406 288.324219 C 165.164062 288.617188 165.671875 290.84375 166.234375 291.671875 Z M 183.746094 208.746094 C 183.957031 208.75 184.1875 208.707031 184.378906 208.824219 C 185.078125 209.195312 185.757812 209.613281 186.355469 210.132812 C 186.484375 210.222656 186.441406 210.394531 186.464844 210.53125 C 185.976562 210.53125 185.503906 210.308594 185.011719 210.371094 C 184.523438 210.460938 184.097656 210.121094 183.699219 209.890625 C 183.640625 209.511719 183.734375 209.125 183.746094 208.746094 Z M 181.492188 198.1875 C 181.78125 197.828125 182.191406 198.386719 182.128906 198.699219 C 181.839844 198.65625 181.4375 198.566406 181.492188 198.1875 Z M 203.589844 236.742188 C 203.167969 237.136719 202.878906 237.652344 202.464844 238.050781 C 201.964844 238.597656 201.441406 239.167969 201.238281 239.902344 C 201.113281 240.398438 200.835938 240.835938 200.628906 241.300781 C 200.4375 241.65625 200.445312 242.0625 200.417969 242.453125 C 200.113281 243.128906 199.335938 243.347656 198.832031 243.835938 C 198.277344 244.339844 198.242188 245.171875 197.742188 245.714844 C 195.898438 247.773438 195.695312 248.105469 195.160156 248.097656 C 192.285156 248.792969 192.542969 250.796875 192.117188 251.507812 C 191.957031 251.714844 191.8125 251.9375 191.707031 252.179688 C 191.1875 252.28125 190.898438 251.753906 190.453125 251.601562 C 188.671875 251.015625 188.71875 252.203125 187.878906 252.445312 C 186.703125 252.765625 186.917969 251.875 186.449219 251.484375 C 186.074219 251.425781 185.660156 251.5625 185.320312 251.351562 C 184.96875 251.164062 184.570312 251.070312 184.246094 250.828125 C 183.953125 250.636719 183.652344 250.425781 183.300781 250.363281 C 182.707031 250.234375 182.171875 249.921875 181.574219 249.8125 C 180.929688 249.691406 180.347656 249.371094 179.703125 249.238281 C 178.886719 249.066406 181.347656 238.214844 182.621094 230.660156 C 182.953125 228.707031 183.523438 222.644531 183.960938 222.210938 C 184.371094 222.253906 184.761719 222.40625 185.171875 222.441406 C 185.609375 222.472656 186.050781 222.746094 186.253906 223.132812 C 186.355469 223.917969 186.746094 224.621094 187.195312 225.257812 C 187.488281 225.871094 189.589844 225.960938 190.347656 227.183594 C 190.847656 228.03125 191.910156 228.128906 192.730469 228.507812 C 193.261719 228.796875 195.640625 230.71875 196.4375 231.148438 C 197.1875 231.546875 197.84375 232.09375 198.605469 232.472656 C 199.183594 232.753906 199.628906 233.234375 200.195312 233.53125 C 202.378906 234.679688 201.992188 235.019531 202.777344 235.707031 C 203.144531 235.917969 203.5625 236.015625 203.957031 236.167969 C 203.878906 236.386719 203.765625 236.589844 203.589844 236.742188 Z M 206.757812 224.746094 C 206.472656 224.453125 206.054688 224.414062 205.679688 224.328125 C 205.0625 223.855469 204.277344 223.671875 203.667969 223.179688 C 202.484375 222.246094 200.367188 221.613281 197.265625 219.957031 C 196.609375 219.480469 196.054688 218.800781 195.246094 218.578125 C 194.789062 218.386719 194.261719 218.5625 193.820312 218.324219 C 193.210938 217.992188 192.621094 217.625 192.039062 217.253906 C 190.523438 216.546875 190.066406 216.8125 189.878906 216.136719 C 189.699219 215.601562 189.308594 215.109375 188.761719 214.925781 C 188.398438 214.804688 187.964844 215.03125 187.765625 214.121094 C 187.65625 213.632812 187.421875 213.179688 187.34375 212.683594 C 187.390625 212.632812 187.484375 212.535156 187.53125 212.484375 C 188.628906 212.738281 190.265625 214.359375 191.027344 215.195312 C 191.539062 215.773438 192.378906 215.734375 193.035156 216.046875 C 193.414062 216.253906 193.734375 216.554688 194.121094 216.742188 C 194.929688 217.222656 195.933594 217.28125 196.671875 217.894531 C 197.070312 218.238281 197.539062 218.472656 198.019531 218.679688 C 202.808594 222.09375 202.402344 221.472656 203.933594 222.382812 C 206.234375 223.945312 204.949219 222.789062 206.527344 224.015625 C 207.023438 224.304688 207.652344 224.546875 207.875 225.125 C 207.464844 225.355469 207.042969 225.019531 206.757812 224.746094 Z M 267.003906 258.109375 C 266.960938 258.273438 266.65625 258.289062 266.632812 258.113281 C 266.640625 257.832031 266.71875 257.550781 266.855469 257.308594 C 266.898438 257.175781 267.535156 256.992188 267.003906 258.109375 Z M 283.597656 241.683594 C 283.144531 241.367188 282.890625 240.847656 282.742188 240.332031 C 282.695312 240.203125 282.765625 240.082031 282.804688 239.96875 C 282.875 239.96875 283.023438 239.96875 283.097656 239.96875 C 283.464844 240.390625 283.828125 240.828125 284.042969 241.355469 C 284.195312 241.746094 284.453125 242.09375 284.507812 242.519531 C 283.984375 242.605469 283.957031 241.914062 283.597656 241.683594 Z M 283.96875 239.96875 C 283.722656 239.160156 283.179688 238.421875 283.25 237.539062 C 283.398438 237.539062 283.554688 237.542969 283.710938 237.550781 C 283.925781 237.957031 284.214844 238.324219 284.410156 238.746094 C 284.515625 238.945312 284.332031 239.132812 284.265625 239.3125 C 284.335938 239.328125 284.476562 239.351562 284.546875 239.367188 C 284.5 239.691406 284.542969 240.039062 284.785156 240.289062 C 285.171875 240.691406 284.570312 241.734375 283.96875 239.96875 Z M 284.804688 241.605469 C 285.070312 241.503906 285.222656 241.761719 285.34375 241.949219 C 285.519531 242.199219 285.496094 242.515625 285.523438 242.804688 C 285.171875 242.664062 285.261719 242.976562 284.804688 241.605469 Z M 286.292969 240.148438 C 286.300781 240.285156 286.222656 240.484375 286.0625 240.472656 C 285.8125 240.527344 285.714844 240.261719 285.59375 240.113281 C 285.25 239.53125 284.683594 239.035156 284.652344 238.316406 C 284.613281 237.5625 284.273438 236.867188 284.179688 236.132812 C 284.363281 236.082031 284.582031 236.042969 284.710938 236.234375 C 285.179688 236.800781 285.40625 237.527344 285.71875 238.1875 C 285.953125 238.824219 286.375 239.4375 286.292969 240.148438 Z M 286.292969 240.148438 " fill-opacity="1" fill-rule="nonzero"/></g></svg>